<?xml version="1.0" encoding="UTF-8"?><svg id="_圖層_2" xmlns="http://www.w3.org/2000/svg" viewBox="0 0 13.48 37.65"><defs><style>.cls-1{fill:#ffe7d9;}.cls-2,.cls-3{fill:#b2d2d9;}.cls-4{stroke-width:1.13px;}.cls-4,.cls-3,.cls-5{stroke:#1a4369;stroke-linecap:round;stroke-linejoin:round;}.cls-4,.cls-5{fill:none;}.cls-3,.cls-5{stroke-width:1.7px;}</style></defs><g id="design"><g id="VKV__71_52_"><path class="cls-2" d="m9.19,34.44s.9-.36.92-.89c.03-.59-.08-1.44-.04-2.38.08-1.78.57-4.85.75-6.81.18-1.96.72-9.02.88-10.65s.29-2.97.29-2.97c0,0,.18-1.74.39-3.87.11-1.06-.72-2.62-.7-4.16-.07-3.57-7.87-3.61-8.8-.09-.12,1.67-.99,3.35-1.11,4.8-.27,3.16-.05,13.57.44,18.11.36,3.39.82,6.82.97,8.82.05.68.97,1.23.98,1.51l5.03-1.4Z"/><path class="cls-1" d="m4.1,35.84c.13,2.61,5.75,2.61,5.14-1.39-.02-.21.81-1.47.15-1.69-1.35-.44-4.83.29-5.57.94-.28.24.3,1.79.28,2.14Z"/><path class="cls-5" d="m2.02,2.86c-.12,1.67-.15,3.1-.24,4.55-.23,3.54.29,11.79.6,16.95.27,4.56.87,10.32.88,11.45"/><path class="cls-5" d="m12.59,3.06c.2,6.34-.38,10.56-1.02,16.1-.56,4.82-1.73,10.37-1.49,15.24"/><path class="cls-3" d="m10.94,26.83l-.14,6.08c-1.36.43-5.39.64-8.75.44l-.16-6.42c2.32-1.6,6.58-2.09,9.05-.11Z"/><path class="cls-2" d="m1.74,7.77l10.46,1.19c0,7.74.61,15.73-.85,19.75-3.99-.03-6.28.24-9.86.31-1.28-5.63-.16-21.25.26-21.25Z"/><path class="cls-5" d="m10.71,28.76s.63-1.78.85-3c.31-1.72.46-3,.8-7.27.28-3.57.06-5.8.2-9.53"/><path class="cls-5" d="m1.74,7.77c-.07,2.8-.55,6.9-.83,11.85-.24,3.77.39,4.93.86,6.92.3,1.28.42,2.32.42,2.32"/><line class="cls-4" x1="2.18" y1="28.86" x2="6.47" y2="28.48"/></g></g></svg>