<?xml version="1.0" encoding="UTF-8"?><svg id="_圖層_2" xmlns="http://www.w3.org/2000/svg" viewBox="0 0 13.64 42.1"><defs><style>.cls-1{fill:#ffe7d9;}.cls-2{fill:#b2d2d9;}.cls-3{fill:#1a4369;}</style></defs><g id="design"><g id="VKV__71_52_"><path class="cls-2" d="m4.58,38.54s-.9-.39-.93-.98c-.03-.66.07-1.61.02-2.67-.09-1.99-.62-5.41-.82-7.61-.2-2.19-.81-10.08-.98-11.9-.18-1.83-.32-3.32-.32-3.32,0,0-.19-1.95-.43-4.32-.12-1.19.7-2.93.66-4.66.03-3.99,7.83-4.13,8.8-.21.14,1.87,1.02,3.74,1.16,5.35.3,3.53.18,15.17-.26,20.25-.33,3.79-.75,7.64-.88,9.87-.04.76-.96,1.38-.96,1.7l-5.05-1.51Z"/><path class="cls-1" d="m9.69,40.05c-.1,2.92-5.72,2.99-5.16-1.49.02-.23-.82-1.64-.17-1.89,1.35-.51,4.83.27,5.58.99.28.27-.28,2-.25,2.39Z"/><path class="cls-3" d="m10.52,40.94c-.47,0-.85-.43-.85-.95,0-.61.11-2.22.26-4.44.17-2.52.38-5.67.51-8.42l.03-.64c.26-5.75.65-14.45.4-18.21-.05-.71-.08-1.41-.12-2.14-.05-.93-.09-1.89-.17-2.94-.04-.52.31-.98.78-1.03.47-.04.88.35.92.87.08,1.07.13,2.04.17,2.99.03.71.07,1.41.11,2.1.25,3.88-.14,12.64-.4,18.44l-.03.64c-.12,2.78-.34,5.93-.51,8.47-.14,2.02-.26,3.76-.26,4.3,0,.53-.38.96-.85.95Z"/><path class="cls-3" d="m3.69,39.46s-.02,0-.03,0c-.47-.02-.84-.46-.82-.99.13-3.83-.46-8.06-1.03-12.16-.22-1.61-.44-3.19-.61-4.71l-.17-1.52C.42,14.69-.11,10.03.02,3.46c.01-.53.4-.94.87-.93s.84.45.83.97c-.12,6.43.37,10.8,1,16.34l.17,1.52c.17,1.5.39,3.07.61,4.66.58,4.18,1.18,8.51,1.04,12.52-.02.51-.4.92-.85.92Z"/><path class="cls-2" d="m2.76,30.05l.2,6.8c1.36.46,5.4.66,8.76.39l.1-7.18c-2.34-1.77-6.6-2.26-9.05-.01Z"/><path class="cls-3" d="m8.46,38.32c-2.45,0-4.74-.21-5.76-.55-.35-.12-.59-.47-.6-.88l-.2-6.8c0-.3.11-.58.31-.77,2.73-2.5,7.41-2.04,10.07-.04.24.18.38.48.37.8l-.1,7.18c0,.49-.35.9-.79.93-1.07.08-2.2.12-3.31.12Zm-4.68-2.23c1.43.27,4.32.42,7.09.26l.08-5.76c-2.04-1.29-5.3-1.6-7.33-.07l.16,5.57Z"/><path class="cls-2" d="m11.77,8.62l-10.45,1.45c.07,8.66-.45,17.6,1.05,22.08,3.99-.08,6.28.2,9.87.24,1.22-6.31-.05-23.76-.47-23.77Z"/><path class="cls-3" d="m3,33.16c-.35,0-.67-.24-.8-.62-.03-.08-.67-2.07-.92-3.5-.33-1.92-.49-3.3-.89-8.22-.19-2.35-.2-4.18-.21-6.12,0-1.4-.02-2.84-.09-4.58-.02-.52.34-.97.81-1,.47-.03.87.38.89.9.08,1.78.08,3.24.09,4.66.01,1.9.02,3.69.2,5.96.38,4.83.55,6.18.86,8.03.22,1.27.84,3.18.85,3.2.16.49-.07,1.04-.51,1.22-.1.04-.2.06-.29.06Z"/><path class="cls-3" d="m11.54,33.17s-.06,0-.08,0c-.47-.05-.81-.52-.76-1.04,0-.05.11-1.24.41-2.72.09-.46.19-.87.29-1.28.37-1.59.7-2.97.48-6.18-.16-2.6-.35-5-.53-7.12-.2-2.41-.37-4.48-.42-6.16-.02-.52.35-.97.82-.98.47-.02.86.39.88.92.05,1.63.22,3.68.42,6.05.18,2.13.38,4.54.53,7.16.24,3.53-.14,5.12-.54,6.8-.09.39-.18.78-.27,1.22-.27,1.36-.37,2.48-.38,2.49-.04.49-.41.86-.85.86Z"/><path class="cls-3" d="m11.54,32.85s-.03,0-.04,0l-4.29-.38c-.31-.03-.55-.33-.52-.68.02-.35.3-.61.61-.58l4.29.38c.31.03.55.33.52.68-.02.33-.27.58-.57.58Z"/></g></g></svg>