<?xml version="1.0" encoding="UTF-8"?><svg xmlns="http://www.w3.org/2000/svg" viewBox="0 0 53.46 142.38"><defs><style>.cls-1,.cls-2,.cls-3,.cls-4,.cls-5{fill:#1a4369;}.cls-1,.cls-6,.cls-7,.cls-3,.cls-8,.cls-4,.cls-9,.cls-5,.cls-10,.cls-11,.cls-12{stroke:#1a4369;stroke-linecap:round;stroke-linejoin:round;}.cls-1,.cls-8{stroke-width:1.13px;}.cls-13{isolation:isolate;}.cls-13,.cls-6,.cls-7,.cls-8,.cls-9,.cls-14,.cls-10,.cls-11,.cls-12{fill:none;}.cls-15,.cls-16{fill:#ffe7d9;}.cls-17{fill:#b2d2d9;}.cls-18{fill:#e0edf0;}.cls-6{stroke-dasharray:0 0 .55 1.39;}.cls-6,.cls-7,.cls-9,.cls-12{stroke-width:.57px;}.cls-3{stroke-width:1.58px;}.cls-16,.cls-14{mix-blend-mode:multiply;}.cls-4{stroke-width:1.87px;}.cls-9{stroke-dasharray:0 0 .57 1.42;}.cls-5,.cls-11{stroke-width:1.7px;}.cls-10{stroke-width:.85px;}.cls-12{stroke-dasharray:0 0 .6 1.5;}</style></defs><g class="cls-13"><g id="_圖層_2"><g id="design"><g id="VKV__71_52_"><path class="cls-5" d="m40.3,35.16c1.45-3.12,4.62-9.22,4.41-13.63-.42-8.67-8.09-14.99-17.59-15.49-9.03-.48-18.32,4-18.49,12.41-.05,2.59,1.72,11.78,3.16,16.13l28.52.58Z"/><path class="cls-17" d="m.85,133.64c-.17,1.88,11.68,7.05,18.05,7.48,5.07.53,10.1.6,15.08.11,7.26-.57,19.04-6.03,18.35-7.28l-.66-8.1c-1.06-9.87-1.79-17.74-1.99-27.7.4-8.52.44-16.86-.53-28.85.4-5.3.55-12.25-3.74-14.25-1.49-.55-9.08-4.45-10.82-5-2.23-.71-3.42-1.71-3.7-3.57h-8.68c-.28,1.85-1.47,2.86-3.7,3.57-1.74.55-9.32,4.45-10.81,5-3.92,1.75-4,9.29-3.75,14.25-.83,12.36-.53,20.33-.13,28.85-1.16,13.73-1.65,17.8-2.39,28.45l-.57,7.04Z"/><path class="cls-15" d="m34.91,50.2c-.89-.28-3.21-.79-3.73-2.09l.45-4.34c.6-2.74-10.56-2.93-10.17,0l.45,4.34c-.52,1.29-2.71,1.68-3.6,1.96,2.08,1.85,4.07,2.87,6.86,3.04.24.01,1.22,2.19,1.46,2.19.24,0,.93-2.17,1.16-2.18,2.79-.11,5.06-1.08,7.12-2.94Z"/><path class="cls-16" d="m21.4,49.53c3.34.86,6.77.87,10.3.02-.98-2.02-1.09-4.02-.27-6.02.49-.11.35-.89-.42-1.27-1-.49-2.65-.66-4.35-.66-1.66,0-3.2.19-4.27.56-.9.3-1.24,1.15-.81,1.35.93,2.09.81,4.1-.18,6.03Z"/><path class="cls-11" d="m7.7,54.2c1.49-.55,9.07-3.59,10.81-4.14,2.23-.71,3.42-1.71,3.7-3.57.2-1.33-.1-2.55-.75-2.71"/><path class="cls-11" d="m31.63,43.77c-.65.17-.95,1.38-.75,2.71.28,1.85,1.47,2.86,3.7,3.57,1.74.55,9.32,3.59,10.81,4.14"/><path class="cls-11" d="m3.11,69.3c.38,11.36.17,20.08.59,28.85-.68,12.29-2.6,26.48-2.85,35.49.54,2.89,12.07,6.96,18.05,7.48,5.98.52,10.12.53,15.08.11,4.96-.42,16.89-3.56,18.64-7.6-.29-10.56-2.57-20.76-3.22-35.49.41-8.77.47-16.24.59-28.85"/><path class="cls-17" d="m34.48,47.62c-.98.2-3.11.55-4.53.85-.58.12-1.01.59-1.1,1.17l-.43,2.98c2.5.1,4.82-.77,6.98-2.51l-.91-2.49Z"/><path class="cls-11" d="m28.41,52.63l.43-2.98c.09-.58.52-1.05,1.1-1.17,1.42-.3,4.11-.66,5.1-.85l.91,2.49"/><path class="cls-10" d="m35.96,50.11c-1.2,1.25-5.64,3.08-7.63,2.91"/><path class="cls-17" d="m24.96,53.02l-.52-3.38c-.09-.58-.52-1.05-1.1-1.17-1.42-.3-4.11-.66-5.1-.85l-.91,2.49c2.01,1.76,4.98,2.63,7.63,2.91Z"/><path class="cls-11" d="m24.88,52.65l-.44-3.01c-.09-.58-.52-1.05-1.1-1.17-1.42-.3-4.11-.66-5.1-.85l-.91,2.49"/><path class="cls-10" d="m17.33,50.11c.83,1.08,5.64,3.08,7.63,2.91"/><line class="cls-8" x1="25.15" y1="52.88" x2="26.3" y2="56.15"/><path class="cls-8" d="m23.49,141.59c.89-31.04-.44-50.12.88-79.38.29-3.08,2.21-5.28,3.67-9.19"/><path class="cls-7" d="m31.48,52.8c-.04.08-.08.17-.12.26"/><path class="cls-9" d="m30.77,54.35c-1.02,2.3-2.26,5.37-2.34,7.32-1.48,31.84.55,53.74-.15,78.93"/><path class="cls-7" d="m28.27,141.31c0,.09,0,.19,0,.28"/><line class="cls-7" x1="21.47" y1="52.44" x2="21.58" y2="52.7"/><line class="cls-12" x1="22.16" y1="54.09" x2="24.31" y2="59.22"/><line class="cls-7" x1="24.6" y1="59.91" x2="24.71" y2="60.17"/><path class="cls-10" d="m46.33,88.27c-1.17.54-2.35,1.06-3.57,1.49-.71.25-1.43.56-2.19.64-.85.09-1.48-.24-2.25-.55-1.59-.64-3.18-1.26-4.68-2.08"/><path class="cls-10" d="m32.95,86.55c.02-3.41.05-6.12.28-9.59"/><path class="cls-10" d="m34.14,76.47c4.61.05,8.11.13,12.69.61.17.04.24.21.23.42,0,3.58,0,6.42-.23,9.94"/><path class="cls-7" d="m34.36,78.69c.1,0,.19,0,.28,0"/><path class="cls-6" d="m36.03,78.71c3.29.04,5.56.11,8.99.45"/><path class="cls-7" d="m45.71,79.22c.09,0,.19.02.28.03"/><path class="cls-2" d="m16.24,83.42c-1.41,5.77-2.97,11.5-4.45,17.26l-2.33,8.6c-.77,2.87-1.56,5.73-2.38,8.59-.04.15-.2.24-.35.2-.15-.04-.23-.2-.2-.34.71-2.88,1.44-5.76,2.2-8.63l2.25-8.62c1.57-5.73,3.07-11.47,4.71-17.19.04-.15.2-.24.35-.2.15.04.24.19.2.34Z"/><path class="cls-2" d="m38.5,100.48c1.89,4.82,3.61,9.7,5.32,14.59.83,2.45,1.61,4.92,2.38,7.39.78,2.47,1.5,4.96,2.18,7.46.04.15-.05.31-.2.35-.15.04-.3-.04-.35-.19l-2.36-7.39c-.79-2.46-1.62-4.91-2.45-7.35-1.61-4.91-3.38-9.77-5.05-14.66-.05-.15.03-.31.18-.36.15-.05.3.03.36.17Z"/><path class="cls-2" d="m36.6,95.5c.25.42.43.86.61,1.3.16.45.32.9.4,1.38.02.13-.07.26-.2.28-.1.02-.19-.03-.24-.11-.26-.41-.44-.86-.61-1.3-.16-.45-.31-.9-.4-1.38-.02-.13.06-.26.2-.28.1-.02.2.03.25.11Z"/><path class="cls-2" d="m5.92,93.39c-.31,1.42-.8,2.76-1.18,4.12-.41,1.35-.73,2.72-1.03,4.1-.03.15-.18.25-.34.22-.14-.03-.23-.16-.23-.29.07-1.45.38-2.88.78-4.26.42-1.38.93-2.72,1.44-4.04.05-.15.22-.22.37-.17.13.05.21.19.18.33Z"/><path class="cls-18" d="m22.1,50.75c0,.33.27.59.59.59s.59-.27.59-.59-.27-.59-.59-.59-.59.27-.59.59Z"/><path class="cls-18" d="m25.98,62.71c0,.33.27.59.59.59s.59-.27.59-.59-.27-.59-.59-.59-.59.27-.59.59Z"/><circle class="cls-18" cx="26.1" cy="75.23" r=".59"/><path class="cls-18" d="m25.62,125.35c0,.33.27.59.59.59s.59-.27.59-.59-.27-.59-.59-.59-.59.27-.59.59Z"/><path class="cls-18" d="m25.57,112.88c0,.33.27.59.59.59s.59-.27.59-.59-.27-.59-.59-.59-.59.27-.59.59Z"/><path class="cls-18" d="m25.35,100.3c0,.33.27.59.59.59s.59-.27.59-.59-.27-.59-.59-.59-.59.27-.59.59Z"/><circle class="cls-18" cx="26.03" cy="87.77" r=".59"/><path class="cls-15" d="m42.68,29c.37.06-.14-.75.12-.87.51-.24,1.23.14,1.86.79,1.26,1.3.95,4.02,0,5.32-.75,1.04-2.27,2.09-3.62,1.87-.34-.05-.55-.81-1.55-.44-.85.38-.85-2.24-.07-4.13.69-1.67,2.33-2.43,3.25-2.54Z"/><path class="cls-11" d="m42.8,28.13c1.92-.17,2.63,2.02,2.58,3.56-.08,2.4-1.34,4.03-4.33,4.43-.34.05-.73.07-1.08.32"/><path class="cls-15" d="m10.41,29c-.37.06.14-.75-.12-.87-.51-.24-1.23.14-1.86.79-1.26,1.3-.95,4.02,0,5.32.75,1.04,2.27,2.09,3.62,1.87.34-.05.55-.81,1.55-.44.85.38.85-2.24.07-4.13-.69-1.67-2.33-2.43-3.25-2.54Z"/><path class="cls-11" d="m10.3,28.13c-1.92-.17-2.63,2.02-2.58,3.56.08,2.4,1.34,4.03,4.33,4.43.34.05.73.07,1.08.32"/><path class="cls-15" d="m31.12,43.75c1.51-.4,2.37-.25,2.73-.44.68-.37,1.69-1.03,2.24-1.45.55-.43,1.35-1.29,1.78-1.92.43-.63,1.11-1.85,1.5-2.71.2-.43.18-1.02.45-1.83,1.05-1.35,1.87-4.86,2.43-8.25.05-.64.17-2.03.26-3.08.09-1.06-.22-3.73-.69-5.93-.47-2.2-1.88-5.15-3.13-6.55-1.25-1.4-3.35-3.12-4.65-3.82-1.3-.7-3.57-1.41-5.04-1.57h-4.83c-1.47.16-3.73.87-5.04,1.57-1.3.7-3.4,2.42-4.65,3.82-1.25,1.4-2.66,4.35-3.13,6.55-.47,2.2-.78,4.87-.69,5.93.09,1.06.21,2.45.26,3.08.56,3.39,1.38,6.91,2.43,8.25.27.81.25,1.39.45,1.83.4.86,1.07,2.08,1.5,2.71.43.63,1.23,1.49,1.78,1.92.55.43,1.55,1.08,2.24,1.45.36.2,1.16.05,2.67.44,2.63,1.28,6.01,1.48,9.13,0Z"/><path class="cls-11" d="m21.79,44.6c-3.82-1.83-6.1-4.23-7.99-7.37-.2-.43-.52-.8-.87-1.05"/><path class="cls-11" d="m42.25,28.04c.05-.64.17-2.92.26-3.98.09-1.06-.22-3.73-.69-5.93-.47-2.2-1.88-5.15-3.13-6.55-1.25-1.4-3.35-3.12-4.65-3.82-1.3-.7-3.57-1.41-5.04-1.57h-4.83c-1.47.16-3.73.87-5.04,1.57-1.3.7-3.4,2.42-4.65,3.82-1.25,1.4-2.66,4.35-3.13,6.55-.47,2.2-.78,4.87-.69,5.93.09,1.06.21,3.34.26,3.98"/><path class="cls-5" d="m40.59,26.59c.08.88.26,3.33.28,3.75l1.31-2.17c.71-.5,1.68-2.05,2.27-3.81,1.72-5.15.42-11.22-3.83-15.56-3.8-3.88-9.3-7.13-17.23-5.48-6.91,1.44-11.34,4.82-13.64,10.06-1.56,3.56-1.21,6.12-.65,9.05.55,2.94,1.16,4.27,2.13,5.79l1.01,2.12.09-3.75c.02-1.87.27-4.86.69-6.39,1.8-6.62,7.11-8.67,13.94-8.32,6.66.34,11.24,2.49,12.83,8.99.33,1.33.76,4.14.81,5.73Z"/><path class="cls-11" d="m31.38,44.6c3.82-1.83,6.1-4.23,7.99-7.37.2-.43.52-.8.87-1.05"/><path class="cls-3" d="m45.12,20.94c1.91-5.49-.42-8.5-3.59-12.8-2.17-2.95-4.49-4.74-7.32-5.57-1.64-.48-2.78.12-3.41.83-.25-1.41-1.08-2.38-3.41-2.58-4.91-.42-12.11,3.55-14.98,7.14-3.66,4.57-4.38,9.17-3.44,12.48,1.3-5.71,5.58-10.56,10.16-11.77,5.12-1.35,11.98.32,17.39.86,2.64.27,6.99,8.02,8.6,11.4Z"/><path class="cls-1" d="m24.57,10.91c-1.72.49-5.55,3.9-7.26,5.54-2.55,2.44-4.9,3.12-8,2.59.71-4.62,2.11-6.91,5.17-8.17,3.07-1.25,9.57-2.74,10.09.03Z"/><path class="cls-1" d="m36.21,17.28c2.08,1.91,4.97,2.5,7.12,2.42.03-1.98-2.9-5.3-4.66-6.2-1.09-.56-3.5-.64-5.12-1.09.23,1.82,1.59,3.89,2.65,4.87Z"/><path class="cls-1" d="m19.82,16.44c2.71-.52,5.46-2.14,7.57-5.66l-3.62-1.9c-.53,3.01-2.09,5.5-3.95,7.55Z"/><path class="cls-1" d="m6.41,17.14c.88,1.8,2.46,5.63,5.21,8.04l.75-4.41c-2.33-.83-5.01-2.61-5.96-3.63Z"/><path class="cls-1" d="m6.15,12.45c.06,3.05,2.83,7.43,6.21,7.76l1.67-11.91c-.31.42-2.15.29-2.5.66-.97,1.03-1.59,2.72-2.6,3.21-1.03.51-1.72.72-2.77.28Z"/><path class="cls-2" d="m25.6,32.05c.1-.14.31-.18.44-.3.29-.27.39-.59.35-.97-.05-.41-.15-.78-.33-1.15-.1-.21-.24-.25-.37-.21-.19.07-.17.39-.13.56.09.39.19.8-.37.96-.26.07-.66.13-.8.39-.14.26-.03.57.08.81.26.54.61,1.02,1.03,1.55.12.14.31.2.48.12.19-.09.26-.32.17-.52,0,0-.5-1-.51-1.01-.03-.05-.07-.12-.06-.18,0-.02,0-.03.02-.04Z"/><path class="cls-4" d="m33.72,28.4c0,.58-.23,1.04-.67,1.04s-.67-.47-.67-1.04.23-1.35.67-1.35.67.78.67,1.35Z"/><path class="cls-2" d="m30.78,25.96c.12-.21.25-.41.38-.62.14-.23.38-.46.59-.63.22-.18.46-.32.75-.44.3-.13.66-.16.94-.16.29,0,.57.06.85.14.29.09.59.24.8.4.22.17.43.35.63.59.05.07.1.13.15.23.04.08.05.12.08.18.05.11.09.22.13.34.07.22-.05.46-.27.54-.16.05-.33,0-.44-.11l-.02-.02c-.15-.16-.32-.46-.4-.47-.12-.11-.3-.22-.48-.31-.19-.1-.33-.17-.5-.21-.18-.05-.38-.06-.56-.07-.2,0-.33,0-.48.05-.16.05-.34.15-.51.24-.18.11-.31.19-.45.35-.18.17-.34.34-.53.5-.18.15-.45.13-.6-.05-.12-.14-.13-.33-.05-.48Z"/><path class="cls-2" d="m36.23,22.57c.15,0,.29-.08.36-.21.08-.16.11-.24.02-.39h0c-.8-1.02-1.7-1.51-2.83-1.55h-.21c-1.15,0-2.37.31-3.43.89-.14.08-.25.21-.27.35-.02.12.01.23.1.33.08.09.19.13.35.13h0c.32,0,.7-.14.99-.24.11-.04.2-.07.26-.09.48-.13,1.04-.26,1.62-.26.07,0,.14,0,.21,0,1.07.06,1.7.3,2.58.97.07.05.15.08.24.08Z"/><path class="cls-4" d="m18.84,28.96c0,.58.23,1.04.67,1.04s.67-.47.67-1.04c0-.58-.23-1.35-.67-1.35s-.67.78-.67,1.35Z"/><path class="cls-2" d="m21.77,26.53c-.12-.21-.25-.41-.38-.62-.14-.23-.38-.46-.59-.63-.22-.18-.46-.32-.75-.44-.3-.13-.66-.16-.94-.16-.29,0-.57.06-.85.14-.29.09-.59.24-.8.4-.22.17-.43.35-.63.59-.05.07-.1.13-.15.23-.04.08-.05.12-.08.18-.05.11-.09.22-.13.34-.07.22.05.46.27.54.16.05.33,0,.44-.11l.02-.02c.15-.16.32-.46.4-.47.12-.11.3-.22.48-.31.19-.1.33-.17.5-.21.18-.05.38-.06.56-.07.2,0,.33,0,.48.05.16.05.34.15.51.24.18.11.31.19.45.35.18.17.34.34.53.5.18.15.45.13.6-.05.12-.14.13-.33.05-.48Z"/><path class="cls-2" d="m16.33,23.13c-.15,0-.29-.08-.36-.21-.08-.16-.11-.24-.02-.39h0c.8-1.02,1.7-1.51,2.83-1.55h.21c1.15,0,2.37.31,3.43.89.14.08.25.21.27.35.02.12-.01.23-.1.33-.08.09-.19.13-.35.13h0c-.32,0-.7-.14-.98-.24-.11-.04-.2-.07-.26-.09-.48-.13-1.04-.26-1.62-.26-.07,0-.14,0-.21,0-1.07.06-1.7.3-2.58.97-.07.05-.15.08-.24.08Z"/><path class="cls-2" d="m24.26,36.26c.11.04.21.09.32.14l.16.07.09.02c.16.05.36.1.56.13.4.07.73.11,1.17.09.43,0,.77-.01,1.16-.1.19-.03.4-.08.56-.13l.09-.02.16-.07c.1-.05.21-.09.32-.13.25-.09.53.03.63.29.07.18.02.37-.1.5-.08.08-.16.17-.25.24l-.13.12c-.07.06-.14.11-.2.14-.25.14-.48.24-.72.33-.48.17-1.05.24-1.52.24-.47-.01-1.05-.06-1.52-.25-.24-.09-.47-.18-.72-.33-.06-.04-.13-.09-.2-.14l-.13-.12c-.09-.08-.17-.16-.25-.24-.19-.19-.18-.5,0-.69.14-.14.35-.17.52-.1Z"/><g class="cls-14"><path class="cls-15" d="m25.22,38.59c.25-.04.5-.04.74-.02.17,0,.38.01.59,0,.21,0,.42,0,.59,0,.24,0,.48-.01.74.04.27.05.44.31.39.58-.03.13-.11.25-.21.32-.22.14-.44.23-.67.32-.3.08-.57.11-.84.12-.27-.02-.54-.03-.84-.13-.23-.08-.45-.17-.67-.31-.23-.14-.3-.44-.16-.67.08-.13.2-.2.34-.23Z"/></g></g></g></g></g></svg>