<?xml version="1.0" encoding="UTF-8"?><svg id="_圖層_2" xmlns="http://www.w3.org/2000/svg" viewBox="0 0 59.66 75.59"><defs><style>.cls-1{fill:#ffe7d9;}.cls-2{fill:#1a4369;}.cls-3{fill:none;stroke:#1a4369;stroke-linecap:round;stroke-linejoin:round;stroke-width:4.68px;}</style></defs><g id="design"><path class="cls-1" d="m27.32,5.54c-.42,5.64-3.07,10.5-6.48,15.02-3.63,4.8-6.21,10.75-8.26,16.38-2.2,6.05-1.38,12.13-4.02,13.96-7.72,2.52-5.89,16.19,2.7,16.65,6.42,2.11,16.12,5.32,22.99,5.44,4.18.07,7.1.36,11.03-1.28,2.68-1.12,7.85-4.11,7.85-7.43,0-1.21.29-2.7.72-3.84.21-.56.67-.99,1.02-1.49,1.15-1.64.96-3.89.31-5.78-.25-.72-.6-1.45-.53-2.22.06-.65,1.78-2.75,2.38-4.29.86-2.22-.87-4.78-3.1-5.61,2.28-2.61,1.84-5.51.85-7.29-.86-1.55-2.42-2.67-4-3.5-2.16-1.13-4.49-2.07-6.92-2.3-1.03-.1-2.07-.03-3.1.04-3.06.21-6.11.42-9.16.62-.12-3.11.81-6.15,1.72-9.11.92-2.97,1.85-6.01,1.72-9.12-.12-3.11-.81-6.29-3.5-7.83-.36-.2-1.44-.51-1.84-.42-2.02.45-2.28,2.03-2.38,3.38Z"/><path class="cls-3" d="m7.81,48.68c2.64-1.83,2.64-5.5,4.85-11.54,2.05-5.64,4.63-11.58,8.26-16.38,3.41-4.52,6.06-9.38,6.48-15.02.1-1.35.36-2.93,2.38-3.38.4-.09,1.48.21,1.84.42,2.7,1.54,3.39,4.72,3.51,7.83.12,3.11-.81,6.15-1.72,9.12s-1.84,6.01-1.73,9.12c3.05-.21,6.11-.42,9.16-.62,1.03-.07,2.07-.14,3.1-.04,2.43.23,4.76,1.17,6.92,2.3,1.57.82,3.14,1.94,4,3.5.99,1.78,1.43,4.68-.85,7.29,2.23.84,3.96,3.4,3.1,5.61-.6,1.54-2.32,3.64-2.38,4.29-.07.76.27,1.49.52,2.22.66,1.89.84,4.14-.31,5.79-.35.49-.81.92-1.02,1.49-.43,1.13-.72,2.62-.72,3.84,0,3.32-5.18,6.31-7.85,7.43-3.92,1.64-6.84,1.35-11.03,1.28-6.86-.12-15.99-1.23-22.41-3.34"/><path class="cls-2" d="m33.24,31.18c-1.04.16-1.79.17-2.63.25-.82.07-1.62.14-2.42.25-1.6.21-3.16.54-4.68,1.03h-.02c-.49.17-1.02-.1-1.18-.6-.14-.44.05-.91.45-1.12,1.54-.83,3.16-1.48,4.8-2.01.82-.27,1.65-.52,2.47-.75.79-.23,1.7-.45,2.27-.67.97-.37,2.06.11,2.43,1.08.37.97-.11,2.06-1.08,2.43-.12.05-.25.08-.38.1h-.04Z"/><path class="cls-3" d="m11.91,69.85c-4.86-1.08-8.62-4.72-9.42-9.74-.67-4.15.99-9.91,5.33-11.43"/></g></svg>