<?xml version="1.0" encoding="UTF-8"?><svg id="_圖層_2" xmlns="http://www.w3.org/2000/svg" viewBox="0 0 79.91 92"><defs><style>.cls-1{fill:#ffe7d9;}.cls-2{stroke-width:2.81px;}.cls-2,.cls-3{fill:none;stroke:#1a4369;stroke-linecap:round;stroke-linejoin:round;}.cls-3{stroke-width:4.68px;}</style></defs><g id="design"><path class="cls-1" d="m23.56,78.04c-.63-5.97-4.01-12.7-6.75-18.36-3.4-7.03-6.68-14.07-10.11-21.09-1.06-2.17-2.75-4.73-3.73-6.93-.83-1.87-1.12-4.56.88-5.81,3.33-2.07,7.37,2.93,8.91,5.13,2.17,3.1,6.82,10.77,7.9,9.99,1.22-.88-1.21-10.29-1.66-12-.91-3.49-2.13-7.5-2.89-11.29-.65-3.21-1.73-6.57-1.27-9.02.56-2.93,3.8-3.67,6.3-2.53,2.97,1.35,3.54,3.7,4.29,6.68.58,2.29,1.11,6.14,1.92,9.42,1.86,7.5,3.89,16.13,5.06,15.9,1.76-.2,1.05-10.56.95-12.69-.14-2.89-.24-5.78-.4-8.66-.16-2.83-.38-5.75-.36-8.61.02-2.85.53-5.28,3.87-5.79,3.24-.49,5.56,2.63,6.18,5.16,1.35,5.53.8,14.31.91,17.11.08,2.02.95,13.74,2.43,14.08,1.01.14,5.47-12.83,8.24-19.38.58-1.37,1.77-3.55,2.84-4.59,1.67-1.64,4.73-2.03,6.6.49,1.4,1.87.4,4.48-.19,6.39-1.92,6.25-4.25,12.6-6.18,18.85-.88,2.88-1.69,3.75-1.99,6.74-.38,3.76.34,8.17.34,11.81,1.25.14,2.37.3,3.53.14,2.87-.41,7.09-1.81,10.51-1.99,3.08-.16,6.43.43,7.71,4.2.7,2.08-.58,4.2-2.71,5.37-1.28.71-3.6,1.24-5,1.65-3.94,1.16-9.97,3.47-13.75,4.5-1.66.45-3.5,1.12-4.96,2.03-1.46.91-4.53,5.66-5.18,7.31l-22.21-4.23Z"/><path class="cls-1" d="m37.2,37.8l13.24,3.31c1.84-1.06,3.93-.15,4.66,2.03.72,2.17,1.09,7.96.81,12.86-.28,4.9-1.55,12.11-2.84,14.89s-3.89,6.42-5.81,9.21c-1.91,2.78-4.13,2.33-4.13,2.33-1.37,3.55-5.61,6.66-10.73,5.77-3.99-.69-7.08-3.44-6.53-8.59,0-3.47-3.68-8.7-4.47-13.86-.79-5.16-6.9-11.1-6.41-13.98.49-2.88,4.08-8.02,6.08-10.4l16.14-3.58Z"/><path class="cls-2" d="m48.53,57.41c-5.45.23-9.28,3.42-10.25,9.03"/><path class="cls-3" d="m23.61,79.27l-.04-1.23c-.63-5.97-4.01-12.7-6.75-18.36-3.4-7.03-6.68-14.07-10.11-21.09-1.06-2.17-2.75-4.73-3.73-6.93-.83-1.87-1.12-4.56.88-5.81,3.33-2.07,7.37,2.93,8.91,5.13,2.17,3.1,6.82,10.77,7.9,9.99,1.22-.88-1.21-10.29-1.66-12-.91-3.49-2.13-7.5-2.89-11.29-.65-3.21-1.73-6.57-1.27-9.02.56-2.93,3.8-3.67,6.3-2.53,2.97,1.35,3.54,3.7,4.29,6.68.58,2.29,1.11,6.14,1.92,9.42,1.86,7.5,3.89,16.13,5.06,15.9,1.76-.2,1.05-10.56.95-12.69-.14-2.89-.24-5.78-.4-8.66-.16-2.83-.38-5.75-.36-8.61.02-2.85.53-5.28,3.87-5.79,3.24-.49,5.56,2.63,6.18,5.16,1.35,5.53.8,14.31.91,17.11.08,2.02.95,13.74,2.43,14.08,1.01.14,5.47-12.83,8.24-19.38.58-1.37,1.77-3.55,2.84-4.59,1.67-1.64,4.73-2.03,6.6.49,1.4,1.87.4,4.48-.19,6.39-1.92,6.25-4.25,12.6-6.18,18.85-.88,2.88-1.69,3.75-1.99,6.74-.38,3.76.34,8.17.34,11.81,1.25.14,2.37.3,3.53.14,2.87-.41,7.09-1.81,10.51-1.99,3.08-.16,6.43.43,7.71,4.2.7,2.08-.58,4.2-2.71,5.37-1.28.71-3.6,1.24-5,1.65-3.94,1.16-9.97,3.47-13.75,4.5-1.66.45-3.5,1.12-4.96,2.03-1.46.91-4.53,5.66-5.18,7.31l-.51.71"/><path class="cls-3" d="m44.82,83.92c-2.68,4.2-7.38,6.48-12.37,5.53-4.13-.79-8.97-4.32-8.92-8.92"/></g></svg>