<?xml version="1.0" encoding="UTF-8"?><svg id="_圖層_2" xmlns="http://www.w3.org/2000/svg" viewBox="0 0 67.63 93.1"><defs><style>.cls-1{fill:#ffe7d9;}.cls-2{stroke-width:2.81px;}.cls-2,.cls-3{fill:none;stroke:#1a4369;stroke-linecap:round;stroke-linejoin:round;}.cls-3{stroke-width:4.68px;}</style></defs><g id="design"><path class="cls-1" d="m13.35,60.94c.13,1.96.34,3.97.63,5.81.79,5.11,3.55,10.55,3.21,13.97-.62,6.12,3,8.58,6.57,9.48,4.02,1.02,8.9-.54,10.69-6.52,0,0,2.44.39,4.33-2.37,1.89-2.76,4.48-7.27,5.75-10.03.33-.71.24-1.85-.06-3.22-10.56-1.57-21.08-3.69-31.11-7.11Z"/><path class="cls-1" d="m15.35,79.29c-1.36-6.95-4.71-12.39-6.98-19.15-2.83-8.43-3.86-14.41-5.01-21.57-.57-3.55-1.19-8.81-.97-12.23.22-3.42.25-9.61,4.78-8.93,3.5.53,3.39,4.53,3.58,7.07.41,5.42.76,10.28,2.82,16.67-.59-3.59-1.09-8.69-1.06-12.23.07-7.03-.14-13.85,2.13-19.2,1.43-3.36,5.62-4.01,7.35-1.6,1.05,1.46.8,4.31.8,6.42,0,5.41-.11,6.93.13,12.44.19,4.14.39,7.85,1.6,11.23-.15-5.99,0-10.42.4-14.58.59-6.03,1.54-13.48,4.53-18.83.57-1.02,1.44-1.91,2.56-2.25,1.64-.5,3.26-.12,4.31,1.11,1.85,2.18.49,8.97.06,12.38-.59,4.68-1.43,11.26-.94,15.95.37,3.53,2.19,6.21,2.19,6.21,0,0,6.29-4.78,9.36-6.15,3.74-1.67,9.29,4.34,12.69,6.92,3.01,2.29,7.51,6.9,4.74,10.39-1.72,2.17-4.5,2.1-6.83,1.03-2.55-1.18-4.94-6.25-7.04-6.93-2.61-.85-6.23,4.2-7.4,6.83-.8,1.79-.7,5.2.11,7.2,1.23,3.07,6.19,4.28,8.33,3.48,2.08-.78,1.93-10.45,9.83-9.87,5.48.4,2.01,7.27,1.34,10.3-.64,2.87-2.81,6.99-6.22,9.89-2.61,2.22-6.81,3.92-10.86,4.25-3.13.26-4.3,2.76-5.4,3.93-.65.69-1.52,1.94-2.94,3.91l-21.99-4.1Z"/><path class="cls-2" d="m28.27,70.03s-1-12.44-10.63-20.06"/><path class="cls-3" d="m36.74,84.28c1.42-1.97,2.9-4.12,3.55-4.81,1.1-1.17,2.27-3.67,5.4-3.93,4.05-.33,8.25-2.03,10.86-4.25,3.41-2.91,5.59-7.02,6.22-9.89.67-3.03,4.15-9.9-1.34-10.3-7.9-.58-7.75,9.09-9.83,9.87-2.14.8-7.1-.4-8.33-3.48-.8-2.01-.9-5.42-.11-7.2,1.17-2.63,4.8-7.68,7.4-6.83,2.1.69,4.49,5.75,7.04,6.93,2.33,1.08,5.11,1.14,6.83-1.03,2.77-3.49-1.73-8.11-4.74-10.39-3.4-2.58-8.95-8.59-12.69-6.92-3.08,1.37-9.36,6.15-9.36,6.15,0,0-1.82-2.68-2.19-6.21-.49-4.69.35-11.27.94-15.95.43-3.4,1.78-10.2-.06-12.38-1.04-1.23-2.67-1.61-4.31-1.11-1.11.34-1.99,1.23-2.56,2.25-2.99,5.35-3.94,12.79-4.53,18.83-.4,4.15-.55,8.58-.4,14.58-1.22-3.38-1.42-7.1-1.6-11.23-.25-5.5-.14-7.02-.13-12.44,0-2.11.25-4.96-.8-6.42-1.74-2.41-5.93-1.76-7.35,1.6-2.27,5.35-2.07,12.17-2.13,19.2-.03,3.53.47,8.64,1.06,12.23-2.06-6.4-2.41-11.26-2.82-16.67-.19-2.54-.08-6.54-3.58-7.07-4.53-.68-4.56,5.51-4.78,8.93-.22,3.42.4,8.68.97,12.23,1.16,7.16,2.18,13.14,5.01,21.57,2.27,6.76,5.15,12.2,6.51,19.15l.13,1.29"/><path class="cls-3" d="m36.34,85.02c-2.68,4.2-7.38,6.48-12.37,5.53-4.13-.79-8.97-4.32-8.92-8.92"/></g></svg>