<?xml version="1.0" encoding="UTF-8"?><svg id="_圖層_2" xmlns="http://www.w3.org/2000/svg" viewBox="0 0 59.41 76.3"><defs><style>.cls-1{fill:#ffe7d9;}.cls-2{stroke-width:2.81px;}.cls-2,.cls-3{fill:none;stroke:#1a4369;stroke-linecap:round;stroke-linejoin:round;}.cls-3{stroke-width:4.68px;}</style></defs><g id="design"><path class="cls-1" d="m29.83,73.09c6.74-1.31,13.32-7.84,18.22-8.94,11.41.21,10.86-15.88,3.09-16.64-3.41-3.3-3.02-8.11-6.24-13.69-3-5.2-6.57-10.6-10.98-14.7-4.14-3.85-7.59-8.18-8.99-13.67-.33-1.31-.86-2.83-2.93-2.92-.41-.02-1.42.47-1.74.73-2.39,1.99-2.51,5.24-2.09,8.32.42,3.08,1.86,5.91,3.28,8.68,1.42,2.77,2.86,5.6,3.28,8.68-3.05.33-6.09.65-9.13.98-1.03.11-2.07.22-3.06.5-2.35.65-4.48,1.98-6.41,3.47-1.41,1.08-2.75,2.46-3.33,4.14-.66,1.92-.59,4.85,2.1,7.03-2.05,1.21-3.31,4.03-2.07,6.07.86,1.42,2.91,3.18,3.09,3.81.21.74,0,1.52-.13,2.27-.32,1.98-.11,4.23,1.31,5.64.43.43.95.77,1.26,1.29.62,1.04,1.17,2.46,1.38,3.65.57,3.27,6.19,5.32,9.02,5.95,4.15.93,6.97.15,11.08-.65Z"/><path class="cls-3" d="m51.32,45.14c-3.41-3.3-3.2-5.94-6.42-11.51-3-5.19-6.57-10.6-10.98-14.7-4.14-3.85-7.59-8.18-8.99-13.67-.33-1.31-.86-2.83-2.93-2.92-.41-.02-1.42.47-1.74.73-2.39,1.99-2.52,5.24-2.09,8.32.42,3.08,1.86,5.91,3.28,8.68,1.42,2.77,2.86,5.6,3.28,8.68-3.04.33-6.09.65-9.13.98-1.03.11-2.06.22-3.06.5-2.35.65-4.48,1.98-6.41,3.47-1.41,1.08-2.75,2.46-3.33,4.14-.66,1.92-.59,4.85,2.1,7.03-2.05,1.21-3.31,4.03-2.07,6.07.86,1.42,2.91,3.18,3.09,3.81.2.74,0,1.52-.13,2.27-.32,1.98-.11,4.23,1.31,5.64.43.43.95.77,1.26,1.29.62,1.04,1.17,2.46,1.38,3.65.57,3.27,6.19,5.32,9.02,5.95,4.15.93,6.98.15,11.08-.65,6.74-1.31,13.2-5.36,18.1-6.46"/><path class="cls-2" d="m9.47,44.27c4.05.7,9.34.51,12.23-.62,2.3-.9,4.83-.7,4.97-3.8.28-6.02-7.09-4.21-10.62-3.37-1.46-.64-3.04-1.02-4.63-1.12"/><path class="cls-2" d="m10.5,53.87c1.81.02,4.87-.1,6.9-.27,2.25-.19,4.3-.17,6.29-1.24,1.71-.91,2.5-1.85,2.72-3.78.22-1.92-.99-3.42-3.13-4.95"/><path class="cls-2" d="m12.43,62.78c2.91-.8,3.82-.06,6.91-.75,2.56-.57,6.12-.83,7.09-3.73.81-2.41-.25-5.52-3.75-5.52"/><path class="cls-2" d="m19.04,69.74c.73-.72,2.87-.37,3.89-.75,2.02-.74,2.67-2.1,2.42-4.33-.22-2.03-1.65-3.36-3.74-3.03"/><path class="cls-2" d="m26.67,41.61c-.93,8.15.82,11.65,4.29,13.66"/><path class="cls-3" d="m51.32,45.14c4.2,2.68,6.48,7.38,5.53,12.37-.79,4.13-4.32,8.97-8.92,8.92"/></g></svg>