<?xml version="1.0" encoding="UTF-8"?><svg id="_圖層_2" xmlns="http://www.w3.org/2000/svg" viewBox="0 0 56.43 97.59"><defs><style>.cls-1{fill:#ffe7d9;}.cls-2{fill:#1a4369;}.cls-3{stroke-width:2.81px;}.cls-3,.cls-4{fill:none;stroke:#1a4369;stroke-linecap:round;stroke-linejoin:round;}.cls-4{stroke-width:4.68px;}</style></defs><g id="design"><path class="cls-1" d="m4.4,72.9c1.15,4.05,7.15,10.01,7.74,13.31-.26,8.56,14.08,12.17,16.71,2.94,1.4-2.65,5.21-5.17,7.96-7.65,5.87-5.28,9.45-9.33,11.94-17.4,1.99-6.44,2.83-11.31,5.02-17.69,1.12-3.26-.8-5.29-3.88-3.95-2.83,1.23-4.7,3.98-5.99,6.79-1.29,2.81-2.3,5.27-3.95,7.89-.26-13.56-1.7-29.32-3.4-42.78-.25-1.98-.56-4.1-1.89-5.58-1.33-1.49-4.06-1.88-5.2-.24-.03-1.48-.17-3.01-.93-4.28-.76-1.27-2.28-2.19-3.71-1.83-1.98.51-2.67,2.92-3.01,4.93l-.14-.14c-1.59-1.4-4.37-1.11-5.63.59-.56.76-.83,1.7-1.06,2.61-.87,3.41-1.48,6.88-1.81,10.38-.75-1.44-2.97-1.48-4.24-.47-1.27,1.01-1.82,2.66-2.27,4.22-.33,1.14-.58,3.41-.71,4.59C3.52,50.04.08,57.68,4.4,72.9Z"/><path class="cls-4" d="m9.85,86.11c-.6-3.3-4.3-9.17-5.45-13.22-4.33-15.22-.88-22.86,1.54-43.74.14-1.18.38-3.45.71-4.59.45-1.56,1-3.21,2.27-4.22,1.27-1.01,3.49-.98,4.24.47.34-3.5.94-6.97,1.81-10.38.23-.92.5-1.85,1.06-2.61,1.27-1.7,4.04-1.99,5.63-.59l.14.14c.34-2.02,1.03-4.43,3.01-4.93,1.43-.37,2.95.56,3.71,1.83.76,1.27.9,2.81.93,4.28,1.14-1.64,3.87-1.26,5.2.23,1.33,1.49,1.64,3.6,1.89,5.59,1.7,13.46,3.14,29.22,3.4,42.78,1.64-2.62,2.66-5.08,3.95-7.89,1.29-2.81,3.16-5.56,5.99-6.79,3.07-1.34,5,.69,3.88,3.95-2.19,6.37-3.03,11.25-5.02,17.69-2.49,8.07-6.07,12.12-11.94,17.4-2.75,2.48-4.26,5.36-5.66,8.02"/><path class="cls-2" d="m30.94,7.98c-.51,11.3-1.18,22.6-.16,33.77.05.51-.32.97-.83,1.03-.5.05-.95-.31-1.03-.8-1.62-11.34-1.56-22.76-1.72-34.08-.01-1.03.81-1.89,1.84-1.9,1.03-.01,1.88.81,1.9,1.85,0,.04,0,.09,0,.13Z"/><path class="cls-2" d="m24.08,7.03c-.84,5.85-1.48,11.72-1.87,17.63-.17,2.96-.45,5.91-.38,8.85l.17,8.89c.01.52-.4.94-.91.96-.5.01-.92-.38-.96-.88-.37-5.91-.6-11.96-.5-17.92.04-5.97.27-11.98.73-17.94.08-1.03.98-1.8,2.01-1.72,1.03.08,1.8.98,1.73,2.01,0,.04,0,.09-.01.13Z"/><path class="cls-2" d="m15.41,21.4l-2.17,22.21v.07c-.06.51-.51.89-1.03.84-.49-.05-.85-.46-.84-.94l.32-22.58c.01-1.03.87-1.86,1.9-1.85,1.03.01,1.86.86,1.85,1.9,0,.05,0,.1,0,.15l-.02.2Z"/><path class="cls-3" d="m22.39,71.2c.7-4.7,4.82-11.74,8.78-14.56"/><path class="cls-3" d="m36.55,60.19c.95-1.13,2.28-1.95,3.72-2.28"/><path class="cls-4" d="m31.15,89.51c-2.68,4.2-7.38,6.48-12.37,5.53-4.13-.79-8.97-4.32-8.92-8.92"/></g></svg>