<?xml version="1.0" encoding="UTF-8"?><svg id="_圖層_2" xmlns="http://www.w3.org/2000/svg" viewBox="0 0 48 95.69"><defs><style>.cls-1{fill:#ffe7d9;}.cls-2{stroke-width:2.81px;}.cls-2,.cls-3{fill:none;stroke:#1a4369;stroke-linecap:round;stroke-linejoin:round;}.cls-3{stroke-width:4.68px;}</style></defs><g id="design"><path class="cls-1" d="m2.27,53.97c.32,1.06.46,2.18.59,3.28.89,7.06,1.99,14.24,6.06,20.26,1.54,2.27,6.29,4.08,7.29,6.68-.7,9.67,14.75,12.19,16.73,2.91,0,0,7.84-7.86,9.49-12.82,1.54-4.64,1.75-9.6,1.43-14.45-.13-2-.43-3.99-.53-5.99-.12-2.29.03-4.59.17-6.88.34-5.37.79-10.05,1.13-15.43.19-3.06.4-6.8.5-9.87.09-2.78.75-5.87-.17-8.82-.27-.87-.81-1.68-1.61-2.12-2.38-1.31-4.4.75-4.93,2.61-1.35,4.65-1.72,10.72-2.15,14.53-.62,5.52-.91,9.15-1.87,15.06-1,.38-2.05.22-2.57-.72s-.34-3.62-.4-4.7c-.5-10.16-1.01-18.22-2.29-29.12-.26-2.18-.71-5.4-3.3-5.97-2.57-.57-3.73,1.5-3.92,3.68-1.19,13.17.85,24.64.99,36.37-.9.45-1.29.23-2.38.84-1.13-1.59-1.7-4.21-2.3-6.07-3.22-10.11-3.46-14.58-6.71-24.01-.78-2.26-2.65-4.58-5.11-2.4-1.71,1.51-1.31,4.26-1.11,6.28.52,5.25,1.5,9.07,2.49,13.64,1.08,5,2.23,10.79,3.85,15.89-3.78-3.63-10.58,1.59-9.39,7.32Z"/><path class="cls-3" d="m13.91,84.22c-1-2.6-3.24-4.44-4.77-6.71-4.08-6.02-5.18-13.2-6.06-20.25-.14-1.1-.28-2.21-.6-3.28-1.19-5.72,5.61-10.95,9.39-7.32-1.62-5.1-2.77-10.89-3.85-15.89-.99-4.57-1.97-8.39-2.49-13.65-.2-2.02-.6-4.76,1.11-6.28,2.46-2.18,4.72-.18,5.49,2.07,3.25,9.43,3.25,13.2,6.46,23.31.59,1.86,1.21,4.87,2.34,6.46,0,0,1.99-.21,2.2-.21-.14-11.72-2.49-23.6-1.6-35.97.16-2.17,1.96-4.64,4.53-4.07,2.59.57,3.53,3.62,3.78,5.79,1.29,10.9,1.65,18.11,2.15,28.27.05,1.07.34,5.98.34,5.98,0,0,1.07.84,2.08.46.95-5.92,1.15-10.34,1.77-15.86.43-3.81,1.1-9.09,2.45-13.74.54-1.86,2.55-3.92,4.93-2.61.8.44,1.33,1.25,1.61,2.12.93,2.95.27,6.04.17,8.82-.1,3.06-.31,6.81-.5,9.87-.34,5.37-.79,10.05-1.13,15.43-.15,2.29-.29,4.59-.18,6.89.1,2,.4,3.99.53,5.99.32,4.84.11,9.8-1.43,14.45-1.65,4.96-5.27,8.65-7.45,13.34"/><path class="cls-2" d="m34.79,58.18c-1.39.09-3.92-.42-5.32-1.08-1.8-.85-3.6-1.82-5.48-2.46-3.03-1.05-6.38-.76-9.54-.74-1.15,0-2.4-.32-3.36.47-.95.78-1.1,2-.67,3.16s2,2.43,3.05,3.09c2.4,1.52,4.48,2.82,9.2,3.71.25.65.38,1.42.54,2.32"/><path class="cls-2" d="m21.21,79.37c-.89-5.21-1.4-10.39.87-15.35"/><path class="cls-2" d="m28.89,55.11c.84-.76,1.79-1.45,2.63-2.21"/><path class="cls-2" d="m7.95,46.55c3.14-.91,4.7,4.83,5.49,6.92"/><path class="cls-2" d="m3.12,51.77c1.7,5.09,4.62,9.06,7.31,11.76,1.44,1.44,2.34,1.21,3.14.91,1.05-.39,1.18-1.18.91-2.87"/><line class="cls-2" x1="14.48" y1="46.55" x2="11.61" y2="48.5"/><path class="cls-3" d="m35.2,87.61c-2.68,4.2-7.38,6.48-12.37,5.53-4.13-.79-8.97-4.32-8.92-8.92"/></g></svg>