<?xml version="1.0" encoding="UTF-8"?><svg id="_圖層_2" xmlns="http://www.w3.org/2000/svg" viewBox="0 0 55.47 95.4"><defs><style>.cls-1{fill:#ffe7d9;}.cls-2{stroke-width:2.81px;}.cls-2,.cls-3{fill:none;stroke:#1a4369;stroke-linecap:round;stroke-linejoin:round;}.cls-3{stroke-width:4.68px;}</style></defs><g id="design"><path class="cls-1" d="m23.94,84.21c-1.51-4.21-6.39-7.23-7.97-10.66-1.48-3.22-2.56-6.62-3.23-10.1-.67-3.53-1.59-7.07-1.86-10.67-.08-1.03-.74-1.92-1.17-2.86-3.07-6.69-6.41-12.84-7.38-20.14-.2-1.55.26-3.16,1.68-3.82,1.6-.74,4-.4,4.8,1.73l8.83,16.12,1.74,2.53c-1.62-5.1-3.51-10.56-4.59-15.56-.99-4.57-1.9-9.68-2.37-14.45-.18-1.83.1-6.5,1.91-7.43,2.65-1.37,4.61.22,5.31,2.27,2.96,8.57,3.3,13.52,5.98,22.81.54,1.87,1.76,7.14,2.89,8.73l1.34.03c-.14-11.72-1.73-24.09-.65-36.06.18-1.97,2.02-4.82,4.36-4.31,2.35.52,3.59,3.74,3.82,5.71,1.17,9.91,1.5,19.43,1.99,29.6.05,1.07-.03,3.36.5,4.3l1.29.03c.95-5.92,1.16-8.92,1.79-14.44.43-3.81,1.25-9.52,2.48-13.75.44-1.53,1.96-4.09,4.51-3.65,4.2.72,3.03,8.36,2.94,11.16-.1,3.06-.31,6.81-.5,9.87-.34,5.37-.79,10.05-1.13,15.43-.15,2.29-.29,4.59-.18,6.89.1,2,.4,3.99.53,5.99.34,5.07-.32,10.29-2.02,15.08-1.63,4.59-7.37,8.14-8.9,12.58-2.1,7.14-16.93,6.17-16.73-2.99Z"/><path class="cls-3" d="m21.67,83.93c-1.51-4.21-4.08-6.94-5.66-10.38-1.48-3.22-2.56-6.62-3.23-10.1-.67-3.53-1.59-7.07-1.86-10.67-.08-1.03-.74-1.92-1.17-2.86-3.07-6.69-6.41-12.84-7.38-20.14-.2-1.55.25-3.16,1.68-3.82,1.6-.74,4-.4,4.8,1.73l8.83,16.12,1.74,2.53c-1.62-5.1-3.51-10.56-4.59-15.56-.99-4.57-1.9-9.68-2.37-14.45-.18-1.83.1-6.5,1.91-7.43,2.65-1.37,4.61.22,5.31,2.27,2.96,8.57,3.3,13.52,5.98,22.81.54,1.87,1.76,7.14,2.89,8.73l1.34.03c-.14-11.72-1.73-24.09-.65-36.06.18-1.97,2.02-4.82,4.36-4.31,2.35.52,3.59,3.74,3.82,5.71,1.17,9.91,1.5,19.43,1.99,29.6.05,1.07-.03,3.36.5,4.3l1.29.03c.95-5.92,1.16-8.92,1.79-14.44.43-3.81,1.25-9.52,2.48-13.75.44-1.53,1.96-4.09,4.51-3.65,4.2.72,3.03,8.36,2.94,11.16-.1,3.06-.31,6.81-.5,9.87-.34,5.37-.79,10.05-1.13,15.43-.15,2.29-.29,4.59-.17,6.89.1,2,.4,3.99.53,5.99.34,5.07-.32,10.29-2.02,15.08-1.63,4.59-5.11,8.26-6.65,12.7"/><path class="cls-2" d="m44.23,58.75c-1.39,0-3.88-.69-5.23-1.44-1.73-.97-3.47-2.06-5.29-2.84-2.95-1.26-6.32-1.2-9.47-1.41-1.15-.07-2.37-.49-3.38.23-1.01.71-1.23,1.92-.89,3.11.34,1.18,1.83,2.56,2.82,3.29,2.28,1.68,4.27,3.13,8.92,4.35.2.66.28,1.45.38,2.35"/><path class="cls-2" d="m28.77,79.08c-.89-5.21-1.4-10.39.87-15.35"/><path class="cls-2" d="m36.45,54.82c.84-.76,1.79-1.45,2.63-2.21"/><path class="cls-3" d="m42.96,87.32c-2.68,4.2-7.38,6.48-12.37,5.53-4.13-.79-8.97-4.32-8.92-8.92"/></g></svg>