<?xml version="1.0" encoding="UTF-8"?><svg id="_圖層_2" xmlns="http://www.w3.org/2000/svg" viewBox="0 0 74.54 95.51"><defs><style>.cls-1{fill:#ffe7d9;}.cls-2{stroke-width:2.81px;}.cls-2,.cls-3{fill:none;stroke:#1a4369;stroke-linecap:round;stroke-linejoin:round;}.cls-3{stroke-width:4.68px;}</style></defs><g id="design"><path class="cls-1" d="m2.73,64.87c1.41,6.22,3.09,8.94,7.05,13.58,1.99,2.34,5.02,5.76,5.02,5.76-.27,9.9,14.37,10.59,16.78,2.82,2.66-2.59,5.45-4.93,9.35-6.99,5.31-2.79,10.6-6.57,14.7-10.98,3.85-4.14,8.18-7.59,13.67-8.98,1.31-.33,2.83-.86,2.92-2.93.02-.41-.47-1.42-.73-1.74-1.99-2.39-5.24-2.52-8.32-2.09-3.08.42-5.91,1.86-8.68,3.28-2.77,1.42-4.66,2.86-7.74,3.28l-.8,3.43c.19-6.32.38-13.09-.47-19.35-1.49-10.89-1.81-21.88-3.57-32.76-.29-1.79-.61-3.6-1.39-5.24-1.18-2.48-5.39-5.79-6.98-1.65-.42,1.08-.37,2.28-.32,3.44.3,6.7.3,13.41.44,20.12.08,3.72.86,7.69.22,11.37-.91-1.5-4.7-3.68-7.08-3.07-1.44.37-2.08.82-3.18,1.96-1.19,1.22-1.1,3.16-1.26,4.75,0,.05-2.35.21-2.62.25-1.39.17-2.47.65-3.46,1.64-.88.88-1.87,2.48-3.28,2.48-8.66,0-11.81,10.73-10.24,17.65Z"/><path class="cls-3" d="m12.52,84.03s-.75-3.25-2.74-5.58c-3.96-4.64-5.64-7.36-7.05-13.58-1.57-6.93,1.58-17.65,10.24-17.65,1.41,0,2.4-1.6,3.28-2.48.99-.99,2.06-1.46,3.46-1.64.28-.03,2.62-.2,2.62-.24.16-1.59.08-3.53,1.26-4.75,1.11-1.14,1.74-1.59,3.18-1.96,2.38-.61,6.17,1.57,7.08,3.07.64-3.68-.15-7.65-.22-11.37-.14-6.7-.14-13.42-.44-20.11-.05-1.16-.1-2.36.32-3.44,1.6-4.14,5.8-.83,6.98,1.65.78,1.64,1.1,3.45,1.39,5.24,1.76,10.88,2.08,21.86,3.57,32.75.86,6.26.67,13.03.48,19.35"/><path class="cls-2" d="m20.32,43.79c3.43,0,3.82,2.74,4.21,4.02"/><path class="cls-2" d="m15.12,51.63c1.64,3.7,3.4,6.66,5.54,10.09.65,1.04,1.38,1.97,2.71,1.96.6,0,1.19-.17,1.77-.34.96-.28,2-.6,2.59-1.42.41-.57.53-1.3.48-2-.15-2.1-1.44-5.87-2.21-7.81"/><path class="cls-2" d="m7.19,58.98c1.18.2,2.48.51,3.33,1.86,1.53,2.43,3.62,6.17,7.18,4.28,1.39-.74,2.48-3.4,1.31-5.88"/><path class="cls-2" d="m28.55,59.53c1.58,1.13,5.17.08,6.82-1.78,0,0,1.65-3.3,0-12.79"/><path class="cls-2" d="m23.19,67.99c.52-2.35,1.95-4.65,2.95-5.04"/><path class="cls-3" d="m33.81,87.43c2.66-2.59,3.21-5.34,7.11-7.39,5.31-2.79,10.6-6.57,14.7-10.98,3.85-4.14,8.18-7.59,13.67-8.99,1.31-.33,2.83-.86,2.92-2.93.02-.41-.47-1.42-.73-1.74-1.99-2.39-5.24-2.52-8.32-2.09-3.08.42-5.91,1.86-8.68,3.28s-4.66,2.86-7.74,3.28"/><path class="cls-3" d="m33.81,87.43c-2.68,4.2-7.38,6.48-12.37,5.53-4.13-.79-8.97-4.32-8.92-8.92"/></g></svg>