<?xml version="1.0" encoding="UTF-8"?><svg id="_圖層_2" xmlns="http://www.w3.org/2000/svg" viewBox="0 0 93.36 76.15"><defs><style>.cls-1{fill:#ffe7d9;}.cls-2{fill:#1a4369;}.cls-3{fill:none;stroke:#1a4369;stroke-linecap:round;stroke-linejoin:round;stroke-width:4px;}</style></defs><g id="design"><path class="cls-1" d="m33.3,19.79c-4.73,5.55-9,10.3-11.78,13.91-2.88,3.74-9.75,16.37-13.55,18.74-9.53,5.82-2.11,21.77,6.98,19.12,5.91.06,10.92.17,16.09-.39,4.89-.52,11.25-1.83,16.03-3,4.68-1.15,11.22-4.17,15.81-5.54,10.69-3.19,24.69,8.04,26.21,5.47,1.52-4.06-.48-8.81-3.84-11.54-4.76-3.87-10.87-5.75-16.54-6.59-6.58-.97-13.89-7.2-14.47-14.53-.44-5.56,2.84-8.93,5.49-11.49,3.47-3.36,7.69-4.01,12.61-3.94,2.78.04,7.4,1.69,9.82,3.06,3.53,1.99,7.57,4.21,7.57,4.21,1.2-.84,2.76-5.37.36-8.77-2.95-4.17-5.72-4.46-9.13-6.73-3.96-2.63-9.54-8.69-14.31-9.66-.93-.19-2.17-.2-3.01.31-.94.57-1.08,1.66-2.05,2.2-.87.48-1.93.42-2.92.58-2.5.41-4.32,2.47-6.44,3.86-2.87,1.88-6.08,3.28-9.25,4.57-3.72,1.51-6.83,2.8-9.69,6.15Z"/><path class="cls-3" d="m6.72,49.96c3.8-2.38,11.92-12.52,14.81-16.26,2.78-3.61,7.05-8.36,11.78-13.91,2.86-3.35,5.97-4.64,9.69-6.15,3.17-1.29,6.38-2.68,9.25-4.57,2.12-1.39,3.94-3.44,6.44-3.86.98-.16,2.04-.09,2.92-.58.96-.54,1.11-1.62,2.05-2.2.84-.51,2.08-.5,3.01-.31,4.77.97,10.35,7.02,14.31,9.66,3.41,2.27,6.19,2.55,9.13,6.73,2.4,3.4.84,7.93-.36,8.77,0,0-4.04-2.22-7.57-4.21-2.42-1.36-7.04-3.02-9.82-3.06-4.92-.07-9.13.58-12.61,3.94-2.65,2.56-5.93,5.93-5.49,11.49.58,7.33,7.88,13.55,14.47,14.53,5.68.84,11.79,2.72,16.55,6.59,3.36,2.73,5.36,7.49,3.84,11.54-1.52,2.57-15.53-8.66-26.22-5.47-4.6,1.37-11.13,4.39-15.81,5.54-4.78,1.17-11.14,2.48-16.03,3-5.17.56-9.17,3.04-15.07,2.98"/><path class="cls-2" d="m51.84,25.52c2.88-1.9,5.84-3.88,9.03-5.65,1.62-.85,3.34-1.59,5.2-2.12,1.85-.53,3.96-.83,6.11-.23.9.25,1.42,1.18,1.17,2.07-.24.85-1.08,1.36-1.93,1.21l-.1-.02c-2.63-.49-5.95.62-8.97,2.08-3.15,1.34-6.12,3.22-9.46,4.66-.57.25-1.24-.02-1.49-.59-.22-.51-.03-1.1.42-1.39h.02Z"/><path class="cls-2" d="m45.69,16.93c3-.9,5.84-2.76,9.1-4.14,1.57-.68,3.35-1.33,5.14-1.64l2.53-.45c.91-.14,1.82-.26,2.75-.28,3.74-.1,7.37,1.07,10.52,2.52.8.38,1.55.69,2.46,1.23.84.53,1.91,1.27,2.44,2.76.88,3.17-1.97,6.06-5.17,5.1-.89-.27-1.4-1.21-1.13-2.1.27-.89,1.21-1.4,2.1-1.13,0,0,.01,0,.02,0l.14.05c.08.03.3,0,.54-.25.24-.27.23-.46.18-.57,0-.4-1.5-1.29-3.02-1.94-2.96-1.39-5.96-2.35-9.03-2.3-1.47-.03-3.14.25-4.81.45-1.57.19-3.02.63-4.59,1.21-3.02,1.15-6.04,2.88-9.63,3.67-.61.14-1.21-.25-1.35-.86-.13-.58.21-1.15.77-1.32h.05Z"/><path class="cls-2" d="m32.02,60.92c1.93-1.46,3.37-3.47,4.19-5.65.84-2.14.78-4.62,1.24-7.51.25-1.42.76-2.99,1.77-4.33,1.01-1.32,2.17-2.17,3.15-2.97,1.03-.83,1.72-1.44,2.18-2.45.53-.98.92-2.36,1.67-3.67.31-.54,1.01-.73,1.54-.41.5.29.69.9.48,1.42-.44,1.07-.59,2.32-1.1,3.78-.51,1.49-1.74,2.83-2.72,3.7-1.01.94-2,1.71-2.56,2.54-.58.8-.88,1.83-1.12,3-.49,2.3-.37,5.28-1.68,8.07-1.2,2.72-3.29,4.98-5.84,6.38-.55.3-1.23.1-1.53-.45-.27-.5-.12-1.12.32-1.45Z"/><path class="cls-2" d="m57.72,5.36c3.21.04,6.39.49,9.48,1.21,3.09.76,6.13,1.47,9.19,2.85,2.94,1.4,5.72,3.05,8.24,5.37,1.21,1.2,2.5,2.54,3.02,4.77.1.56.13,1.17.01,1.77-.05.31-.14.59-.24.88l-.22.55c-.15.36-.3.81-.63,1.35-.31.53-.98,1.21-1.82,1.45-.89.28-1.83-.21-2.11-1.1-.28-.89.21-1.83,1.1-2.12-.26.15,0,.02.24-.79.17-.47.25-.67.25-.79.03-.16,0-.34-.02-.54-.15-.85-.98-1.99-1.98-2.94-2.03-1.93-4.64-3.53-7.29-4.83-2.56-1.3-5.57-2.21-8.46-3.07-2.93-.8-5.9-1.44-8.9-1.77-.62-.06-1.08-.62-1.01-1.24.06-.58.56-1.01,1.14-1.01Z"/><path class="cls-3" d="m15.98,74.15c-5.97-.26-11.18-3.79-13.18-9.55-1.66-4.77-.9-11.93,3.92-14.64"/></g></svg>