<?xml version="1.0" encoding="UTF-8"?><svg id="_圖層_2" xmlns="http://www.w3.org/2000/svg" viewBox="0 0 40.55 73.63"><defs><style>.cls-1{fill:#ffe7d9;}.cls-2{fill:#1a4369;}.cls-3{fill:none;stroke:#1a4369;stroke-linecap:round;stroke-linejoin:round;stroke-width:4.68px;}</style></defs><g id="design"><path class="cls-1" d="m14.09,61.81c-1-6.39-3.32-9.17-5.52-15.58-1.16-3.4-2.47-7.18-3.51-10.62-.92-3.08-3.35-6.85-2.78-10.11.27-1.57,1.97-4.54,2.49-6.04,1.05-2.98.8-6.6,3.02-8.85.31-.32.66-.59,1.01-.87,3.18-2.49,5.86-6.26,9.78-7.21,2.6-.63,5.97.48,8.63.73,1.26.12,2.74.23,3.94.68,2.96,1.12,4.11,5.41.82,6.91-1.71.79-3.38.35-5.26.52-3.26.29-6.29.83-8.56,2.99,1.3-1.48,4.33-1.55,6.1-1.47,3.18.15,6.44.66,8.34,3.43.81,1.18,2.21,3.31,2.23,4.74.01.84-.31,3.54-1.8,3.04,1.75.83,2.71,2.51,3.59,4.09,1.03,1.86,1.55,4.53-.72,6.18.9,2.57,2.6,4.75,2.06,7.42-.54,2.67-2.58,5.26-5.65,5.6,2.79,3.59.89,14.52-1.2,17.1-3.35,9.33-17.43,5.72-17.02-2.68Z"/><path class="cls-3" d="m11.85,62.15c-1-6.39-.94-9.52-3.14-15.92-1.16-3.4-2.47-7.18-3.51-10.62-.92-3.08-3.35-6.85-2.78-10.11.27-1.57,1.97-4.54,2.49-6.04,1.05-2.98.8-6.6,3.02-8.85.31-.32.66-.59,1.01-.87,3.18-2.49,5.86-6.26,9.78-7.21,2.6-.63,5.97.48,8.63.73,1.26.12,2.74.23,3.94.68,2.96,1.12,4.11,5.41.82,6.91-1.71.79-3.38.35-5.26.52-3.26.29-6.29.83-8.56,2.99,1.3-1.48,4.33-1.55,6.1-1.47,3.18.15,6.44.66,8.34,3.43.81,1.18,2.21,3.31,2.23,4.74.01.84-.31,3.54-1.8,3.04,1.75.83,2.71,2.51,3.59,4.09,1.03,1.86,1.55,4.53-.72,6.18.9,2.57,2.6,4.75,2.06,7.42-.54,2.67-2.58,5.26-5.65,5.6,2.79,3.59,2.79,15.57.7,18.16"/><path class="cls-2" d="m9.8,22.48c1.66-3.64,3.92-7.13,7.23-9.96l.03-.02c.95-.81,2.38-.7,3.19.25.81.95.7,2.38-.25,3.19-.12.1-.26.2-.4.27-3.03,1.63-5.71,4.31-7.83,7.37-.35.52-1.05.65-1.56.31-.46-.31-.61-.91-.39-1.4Z"/><path class="cls-2" d="m22.87,34.08c2.4-.85,4.83-1.79,7.68-1.98,1.41-.08,2.97.09,4.4.73,1.43.63,2.64,1.65,3.61,2.76l.03.04c.68.78.6,1.97-.19,2.65-.78.68-1.97.6-2.65-.19-.06-.06-.12-.15-.16-.22-1.16-1.8-2.79-2.89-5.05-3-2.23-.14-4.7.43-7.14,1-.5.13-1.01-.18-1.14-.68-.12-.47.15-.94.6-1.11Z"/><path class="cls-2" d="m31.11,50.14c-.43-1.42-1.26-3-2.14-4.36l-.17-.27c-.09-.15-.14-.32-.14-.48v-.05c-.02-1.29.57-2.3,1.28-3.02.36-.37.77-.68,1.28-.92.49-.21,1.16-.44,1.97-.12.48.19.71.74.52,1.22-.19.48-.74.71-1.22.52.06.06-.09.07-.27.23-.18.14-.37.35-.51.58-.29.46-.38.99-.27,1.27h0s-.31-.73-.31-.73c1.31,1.43,2.46,2.86,3.43,4.72v.02c.49.92.12,2.06-.8,2.53-.92.48-2.06.12-2.53-.81-.05-.1-.1-.22-.13-.33Z"/><path class="cls-2" d="m34.33,28.37c-1.37-2.08-4.66-3.32-7.52-3.21-1.39.08-2.88.5-4.1,1.35-1.25.83-2.37,2.06-3.51,3.33-.34.38-.94.42-1.32.07-.36-.32-.41-.86-.13-1.25,1-1.38,2.03-2.85,3.5-4.09,1.48-1.25,3.3-2.09,5.29-2.38,1.98-.23,3.87,0,5.74.59,1.84.6,3.69,1.65,5.07,3.36l.02.03c.65.81.52,1.99-.29,2.63-.81.65-1.99.52-2.63-.29-.04-.04-.07-.09-.1-.14Z"/><path class="cls-2" d="m33.69,26c-.11-.15-.84-.57-1.51-.81-.71-.26-1.47-.48-2.24-.66-1.55-.35-3.19-.59-4.71-.59-1.61.04-2.38.18-3.23,1.42-.82,1.27-1.65,2.99-2.74,4.4v.02c-.33.41-.92.49-1.33.17-.38-.29-.47-.81-.24-1.21.84-1.44,1.3-2.91,2.11-4.65.41-.87,1.19-1.86,2.21-2.44,1.04-.6,2.18-.71,3.09-.78,1.9-.12,3.68.04,5.49.32.9.15,1.81.35,2.73.62.93.33,1.84.55,3.01,1.55l.11.1c.79.68.89,1.87.21,2.67-.68.8-1.87.89-2.67.21-.11-.1-.22-.21-.3-.33Z"/><path class="cls-3" d="m33.15,65.55c-2.68,4.2-7.38,6.48-12.37,5.53-4.13-.79-8.97-4.32-8.92-8.92"/></g></svg>