<?xml version="1.0" encoding="UTF-8"?><svg id="_圖層_2" xmlns="http://www.w3.org/2000/svg" viewBox="0 0 42.73 87.35"><defs><style>.cls-1{fill:#ffe7d9;}.cls-2{fill:#1a4369;}.cls-3{stroke-width:2.81px;}.cls-3,.cls-4{fill:none;stroke:#1a4369;stroke-linecap:round;stroke-linejoin:round;}.cls-4{stroke-width:4.68px;}</style></defs><g id="design"><g id="VKV__91_2_"><path class="cls-1" d="m2.81,57.11c.37,6.49,2.73,12.76,5.39,18.65,2.78,6.14,6.68,10.27,13.99,9.09,4.62-.74,9.03-2.92,12.34-6.23,1.94-1.94,3.56-5,2.07-7.3,2.12-.92,3.73-2.94,4.16-5.21s-.34-4.74-1.98-6.37c1.97-3.36,1.46-7.98-1.2-10.83,1.1-3.61,2.18-7.65.51-11.04-.89-1.81-2.46-3.18-3.72-4.75-6.13-7.64-4.55-19.25-10.08-27.33-1.68-2.46-4.65-4.65-7.46-3.65-1.75.62-2.93,2.37-3.27,4.2-.34,1.83.03,3.71.6,5.48,1.19,3.72,3.23,7.17,4,11.01.76,3.83-.17,8.44-3.58,10.36-1.75.99-3.91,1.12-5.61,2.2-2.46,1.56-3.38,4.64-4.11,7.45-.92,3.53-1.84,7.08-2.06,10.71-.07,1.19-.07,2.38,0,3.56Z"/><path class="cls-4" d="m32.89,33.29c2.76,1.94,5.51,3.33,5.69,7.11.09,1.91-.44,3.79-.98,5.63-.17.57-.35,1.18-.24,1.76.09.48.37.91.62,1.33,1.64,2.84,1.94,6.4.82,9.48-.12.34-.27.68-.25,1.04.03.58.47,1.05.82,1.52,1.6,2.18,1.37,6.52-.87,8.24-.55.42-1.19.75-1.65,1.27-.95,1.08-.08,2.08-.1,3.29-.04,3.2-3.49,5.28-5.88,6.78-2.95,1.84-6.67,3.81-10.17,4.24-3.92.48-10.38-3.62-11.65-7.46-.47-1.42-.45-2.96-.94-4.37-.5-1.46-1.56-2.62-2.23-3.99-.99-2.02-.64-4.34-1.24-6.48-.54-1.93-1.76-3.64-2.15-5.6-.74-3.75,1.69-7.33,2.55-11.05.67-2.9.43-5.54,2.17-8.15,2.1-3.15,5.92-3.58,9.2-4.48"/><path class="cls-3" d="m13.26,35.24c7.06-.83,14.1-2.58,20.64-.5"/><path class="cls-2" d="m17.83,45.08c1.25.34,2.7.34,4.18.35l4.5.07c2.99.06,5.93.11,8.78-.16,1.03-.09,1.94.66,2.04,1.7.1,1.03-.66,1.94-1.69,2.04-.07,0-.14,0-.21,0-3.13-.05-6.15-.43-9.12-.8l-4.44-.52c-1.49-.18-3.06-.31-4.66-.92-.48-.18-.72-.73-.54-1.21.17-.45.66-.69,1.11-.57h.04Z"/><path class="cls-2" d="m17.54,58.7c3.18.53,6.38-.13,9.84-.57,1.75-.26,3.47-.15,5.22-.24l5.24-.11c1.03-.02,1.89.8,1.91,1.83.02,1.03-.8,1.89-1.83,1.91-.06,0-.12,0-.17,0l-.26-.02-4.93-.36c-1.64-.07-3.32-.35-4.96-.25-3.27.11-6.92.55-10.43-.36-.5-.12-.81-.63-.68-1.13.12-.47.59-.77,1.06-.7Z"/><path class="cls-2" d="m19.15,72.86c1.61-1.01,3.54-1.49,5.3-1.74,1.72-.27,3.5-.45,5.16-.65,3.29-.4,6.31-1.5,7.94-3.77.6-.84,1.77-1.03,2.62-.43.84.6,1.03,1.78.43,2.62-.04.05-.08.1-.12.15l-.03.03c-1.38,1.56-3.19,2.7-5.04,3.32-1.86.65-3.74.87-5.53.96l-5.19.18c-1.68.06-3.22.28-4.64.96-.47.23-1.03.03-1.25-.44-.21-.43-.05-.95.35-1.2Z"/><path class="cls-4" d="m16.68,32.43c2.23-2.63,2.42-6.82,1.85-10.05-.73-4.13-3.16-7.43-4.18-11.92-.63-2.76-.54-6.27,1.94-7.64,1.5-.83,3.44-.51,4.89.42,1.44.93,2.48,2.37,3.37,3.84,1.86,3.04,2.49,5.97,3.33,9.4,1.48,6.02,2.56,10.13,4.51,15.42"/></g></g></svg>