<?xml version="1.0" encoding="UTF-8"?><svg id="_圖層_2" xmlns="http://www.w3.org/2000/svg" viewBox="0 0 54.42 69.53"><defs><style>.cls-1{fill:#ffe7d9;}.cls-2{stroke-width:2.81px;}.cls-2,.cls-3{fill:none;stroke:#1a4369;stroke-linecap:round;stroke-linejoin:round;}.cls-3{stroke-width:4.68px;}</style></defs><g id="design"><path class="cls-1" d="m10.37,57.98c-2.16-2.62-6.21-5.55-7.19-8.82-.74-2.46-.92-5.04-.8-7.6.12-2.52.69-5.02.55-7.55-.12-2.13-.68-4.47.47-6.24.69-1.06,1.92-1.76,2.3-2.96.38-1.22.04-2.69,1.07-4.34,1.26-2.01,3.61-1.15,4.95-3.09.42-.62.51-1.51.84-2.18.81-1.62,2.94-3.32,5.48-4.01,2.23-.6,5.09,0,5.09,0,1.71-.46,1.27-.96,2.41-2.34,1.75-2.12,3.8-5.08,6.31-6.16,2.82-1.22,6.08.96,7.54,3.71,1.1,2.06,1.88,4.07,2.37,6.42.18,1.09.71,1.24,1.65,1.26.68-.1,1.5.46,2.04.9.99.79,1.44,2.08,1.84,3.29s.87,2.49,1.86,3.27c.66.51,1.51.77,2.03,1.43,1.84,2.33.37,6.38-.15,8.91-1.01,4.95-3.03,8.69-5.23,11.96-3.37,5.04-8.25,7.07-13.13,10.59-1.43,1.03-5.72,6.69-5.72,6.69-2.27,7.53-16.91,6.34-16.6-3.15Z"/><path class="cls-3" d="m8.04,58.06c-2.16-2.62-3.89-5.64-4.86-8.9-.74-2.46-.92-5.04-.8-7.6.12-2.52.69-5.02.55-7.55-.12-2.13-.68-4.47.47-6.24.69-1.06,1.92-1.76,2.3-2.96.38-1.22.04-2.69,1.07-4.34,1.26-2.01,3.61-1.15,4.95-3.09.42-.62.51-1.51.84-2.18.81-1.62,2.94-3.32,5.48-4.01,2.23-.6,5.09,0,5.09,0,1.71-.46,1.27-.96,2.41-2.34,1.75-2.12,3.8-5.08,6.31-6.16,2.82-1.22,6.08.96,7.54,3.71,1.1,2.06,1.88,4.07,2.37,6.42.18,1.09.71,1.24,1.65,1.26.68-.1,1.5.46,2.04.9.99.79,1.44,2.08,1.84,3.29s.87,2.49,1.86,3.27c.66.51,1.51.77,2.03,1.43,1.84,2.33.37,6.38-.15,8.91-1.01,4.95-3.03,8.69-5.23,11.96-3.37,5.04-8.25,7.07-13.13,10.59-1.43,1.03-2.61,4.26-3.35,7.03"/><path class="cls-2" d="m23.49,12.21c2.33.58,4.62,1.3,6.87,2.14,1.28.48,2.63,1.07,3.36,2.24.62.99.69,2.23,1.02,3.36.77,2.65,2.37,6.7,2.9,9.45.34,1.79-.29,2.89-1.58,4.33-1.26,1.41-2.33,1.67-4.09,2.26"/><path class="cls-2" d="m17.1,19.49c3.16,1.37,6.17,3.07,8.98,5.09,1.2.86,2.39,1.81,3.13,3.11.59,1.03.86,2.21,1.09,3.37.54,2.64.97,5.31,1.28,7.99.05.44.1.89-.01,1.31-.11.42-.36.79-.64,1.12-1.28,1.47-3.33,2.2-5.23,1.86"/><path class="cls-2" d="m11.54,28.37c3.2,2.66,6.4,5.32,9.6,7.99.51.42,1.02.85,1.41,1.39.5.69.77,1.51.99,2.34.36,1.33.64,2.68.81,4.05.29,2.27-2.04,3.44-3.87,3.94-1.75.48-5.42,1.33-5.96-1.19.13-.74.62-1.4,1.28-1.74l-.57-2.05c-1.38-.07-2.6-.18-3.66-.93-1.06-.76-1.89-1.79-2.69-2.82"/><path class="cls-2" d="m42.15,15.29c-3.98,4.32-1.93,10.13.78,14.36"/><path class="cls-2" d="m39.76,25.34c-.3.52-1.15,2.44-1.44,2.96"/><path class="cls-2" d="m36.82,22.66c.58.18,1.22.03,1.75-.27.53-.3.62-.4,1.06-.83"/><line class="cls-2" x1="9.24" y1="44.04" x2="11.92" y2="42.74"/><path class="cls-3" d="m29.33,61.45c-2.68,4.2-7.38,6.48-12.37,5.53-4.13-.79-8.97-4.32-8.92-8.92"/></g></svg>