<?xml version="1.0" encoding="UTF-8"?><svg id="_圖層_2" xmlns="http://www.w3.org/2000/svg" viewBox="0 0 49.3 73.8"><defs><style>.cls-1{fill:#ffe7d9;}.cls-2{stroke-width:2.81px;}.cls-2,.cls-3{fill:none;stroke:#1a4369;stroke-linecap:round;stroke-linejoin:round;}.cls-3{stroke-width:4.68px;}</style></defs><g id="design"><path class="cls-1" d="m5.13,12.71s-.6,1.48-.98,3.05c-.85,3.51.06,6.43.98,9.74.41,1.5-.83,2.89-.55,6.19.27,3.29,1.12,5.12.59,8.42-.51,3.18.75,4.89,2.71,7.21,4.43,5.25,13.93,14.72,13.93,14.72,1.31,10.17,15.54,9.76,16.98,2.68,1.09-7.38,7.8-13.06,7.96-20.58.15-7.17-2.99-14.9-6.92-20.75-4.2-6.26-11.35-9.88-14.95-16.45-.72-1.3-1.26-3.08-2.7-3.71-2.92-1.28-3.8.59-3.8.59-1.37.71-4.16-.73-5.53-1.04-1.93-.45-4.13-.78-5.94.25-1.5.86-4.12,2.54-4.67,4.88-.79,3.35,2.89,4.81,2.89,4.81Z"/><path class="cls-3" d="m19.6,62.33c-2.37-4.24-7.08-9.76-11.52-15.01-1.96-2.32-3.22-4.03-2.71-7.21.53-3.31-.31-5.14-.59-8.42-.27-3.3.96-4.69.55-6.19-.91-3.31-1.82-6.23-.98-9.74.38-1.58.98-3.05.98-3.05,0,0-3.67-1.47-2.89-4.81.55-2.34,3.17-4.02,4.67-4.88,1.81-1.04,4.01-.7,5.94-.25,1.36.32,4.16,1.75,5.53,1.04,0,0,.88-1.87,3.8-.59,1.44.63,1.98,2.41,2.7,3.71,3.6,6.56,10.75,10.19,14.95,16.45,3.93,5.85,7.07,13.58,6.92,20.75-.16,7.53-4.97,14.21-6.06,21.59"/><path class="cls-2" d="m10.6,37.36c2.5.39,4.87-1.45,7.4-1.36,3.04.11,8.24,3.16,9.94,5.73.83,1.26,1.38,3.03.99,4.38-.35,1.23-1.79,3.25-3.33,2.57-.56-.25-.95-.76-1.33-1.25-1.14-1.5-4.38-1.96-6.14-2.97"/><path class="cls-2" d="m18.08,48.58c1.26-.63,2.43-1.44,3.46-2.4"/><path class="cls-2" d="m9.99,27.41c1.95-1.5,2.59-2.6,4.32-2.78.61-.06,1.21.13,1.79.34,4,1.4,6.45,2.4,10.28,4.24,2.88,1.39,5.47,5.83,3,8.28-.94.93-2.34,2.14-4.37,1.34"/><path class="cls-2" d="m5.23,14.27c1.03-1.4,2.37-2.55,4.45-2.46,2.4.11,5.32,1.21,7.59,2.03,2.5.91,5.2,3.71,7.32,5.33,3.45,2.63,9.9,8.14,2.77,10.47"/><path class="cls-2" d="m11.85,21.63c.82.8,3.19,2.9,4.25,3.34"/><path class="cls-2" d="m11.52,12.02c2.75.14,4.56-.81,6.36-2.73,2.03-2.16.7-5.48-1.26-4.72"/><path class="cls-2" d="m16.89,11.03c.11,1.2,1.24,2.65,2.06,3.74"/><path class="cls-2" d="m28.41,40.39c.86,2.27,2.38,4.29,4.33,5.74"/><path class="cls-3" d="m40.89,65.72c-2.68,4.2-7.38,6.48-12.37,5.53-4.13-.79-8.97-4.32-8.92-8.92"/></g></svg>