<?xml version="1.0" encoding="UTF-8"?><svg id="_圖層_2" xmlns="http://www.w3.org/2000/svg" viewBox="0 0 53.28 91.96"><defs><style>.cls-1{fill:#ffe7d9;}.cls-2{stroke-width:2.81px;}.cls-2,.cls-3{fill:none;stroke:#1a4369;stroke-linecap:round;stroke-linejoin:round;}.cls-3{stroke-width:4.68px;}</style></defs><g id="design"><path class="cls-1" d="m16.1,80.45c-1.09-2.83-4.21-3.06-5.5-5-4.44-6.69-6.45-13.34-7.41-20.93-.14-1.1-.28-2.21-.59-3.28-1.19-5.72,4.72-10.95,8.5-7.32-2.7-8.6,4.91-10.95,11.57-6.64-1.18-4.44-5.32-18.48-8.6-29.66-.61-2.09.47-4.65,3.05-5.23,2.58-.58,5.05,2.91,6.2,4.78,4.41,8.09,6.45,19.8,9.97,31.69,1.57-5.29,2.51-8.87,4.4-14.91,1.69-5.4,2.96-14.92,6.36-18.53,1.23-1.3,2.87-1.97,4.35-1.28,2.53,1.18,2.69,3.29,2.65,5.42-.1,5.15-2.14,10.82-3.25,15.84-1.05,4.72-2.28,9.17-2.9,13.97-.49,3.77-1.42,7.95-1.23,11.74.1,2,.4,3.99.53,5.99.29,4.36.39,9.07-.98,13.26-1.65,5.05-6.98,8.62-10.36,12.67-3.15,8.71-17.12,5.62-16.76-2.58Z"/><path class="cls-3" d="m13.79,80.48c-1.09-2.83-2.01-3.1-3.29-5.03-4.44-6.69-6.45-13.34-7.41-20.93-.14-1.1-.28-2.21-.59-3.28-1.19-5.72,4.72-10.95,8.5-7.32-2.7-8.6,4.91-10.95,11.57-6.64-1.18-4.44-5.32-18.48-8.6-29.66-.61-2.09.47-4.65,3.05-5.23,2.58-.58,5.05,2.91,6.2,4.78,4.41,8.09,6.45,19.8,9.97,31.69,1.57-5.29,2.51-8.87,4.4-14.91,1.69-5.4,2.96-14.92,6.36-18.53,1.23-1.3,2.87-1.97,4.35-1.28,2.53,1.18,2.69,3.29,2.65,5.42-.1,5.15-2.14,10.82-3.25,15.84-1.05,4.72-2.28,9.17-2.9,13.97-.49,3.77-1.42,7.95-1.23,11.74.1,2,.4,3.99.53,5.99.29,4.36.39,9.07-.98,13.26-1.65,5.05-4.65,9.47-8.03,13.52"/><path class="cls-2" d="m34.4,55.97c-1.5-.47-3.2-.96-4.39-2.06-1.19-1.1-1.8-2.39-3.04-3.59-2-1.95-4.87-3.18-7.37-4.58-.91-.51-1.76-1.6-2.98-1.13s-1.72,1.81-1.64,3.29c.07,1.48.94,3.41,1.79,4.74,1.96,3.06,3.72,6.35,6.11,9.04"/><path class="cls-2" d="m21.23,76.64c-.89-5.21-1.4-10.39.87-15.35"/><path class="cls-2" d="m28.91,52.38c.84-.76,1.79-1.45,2.63-2.21"/><path class="cls-2" d="m3.14,49.04c1.7,5.09,4.56,8.01,7.25,10.71,1.44,1.44,3.55,1.87,4.18,1.31,2.36-2.09-.2-6.34-2.57-12.03-1.28-3.05-2.66-5.46-4.03-5.21"/><path class="cls-2" d="m11.43,42.12c.62,3.54,1.34,5.38,2.09,8.88.63,2.93,2.09,8.49,6.53,7.97"/><path class="cls-2" d="m21.15,42.86c.78,1.44,1.02,2.55,1.54,3.73"/><path class="cls-2" d="m21.91,34.2c.78.65,1.57,3.22,2.62,6.09"/><path class="cls-3" d="m35.08,83.87c-2.68,4.2-7.38,6.48-12.37,5.53-4.13-.79-8.97-4.32-8.92-8.92"/></g></svg>