<?xml version="1.0" encoding="UTF-8"?><svg id="_圖層_2" xmlns="http://www.w3.org/2000/svg" viewBox="0 0 49.22 95.63"><defs><style>.cls-1{fill:#ffe7d9;}.cls-2{stroke-width:2.81px;}.cls-2,.cls-3{fill:none;stroke:#1a4369;stroke-linecap:round;stroke-linejoin:round;}.cls-3{stroke-width:4.68px;}</style></defs><g id="design"><path class="cls-1" d="m31.5,87.27c1.36-3.23,6.49-4.95,8.69-7.54,3.9-4.58,6.33-10.28,6.47-16.3.14-6.32-1.05-12.59-1.36-18.9-.34-7,.37-14.01.59-21.01.11-3.53.11-7.07-.2-10.58-.24-2.71-.32-7.08-2.16-9.25-.24-.28-.51-.53-.82-.73-1.61-1.06-3.56-.76-4.5,1-.55,1.02-.65,2.22-.74,3.38-.56,7.26-.74,16.39-1.3,23.65-.23,2.96-.55,6.15-2.52,8.37-.91-1.5-4.7-3.68-7.08-3.07-1.44.37-2.08.82-3.18,1.96-1.19,1.22-1.1,3.16-1.26,4.75,0,.05-2.35.21-2.62.24-1.39.17-2.47.65-3.46,1.64-.88.88-1.87,2.48-3.28,2.48-8.66,0-11.81,10.73-10.24,17.65,1.41,6.22,3.09,8.93,7.05,13.58,1.99,2.34,5.22,5.45,5.22,5.45-.52,10.16,14.49,12.38,16.71,3.25Z"/><path class="cls-3" d="m33.81,87.55c1.36-3.23,4.38-5.23,6.59-7.82,3.9-4.58,6.33-10.28,6.47-16.3.14-6.32-1.05-12.59-1.36-18.9-.34-7,.37-14.01.59-21.01.11-3.53.11-7.07-.2-10.58-.24-2.71-.32-7.08-2.16-9.25-.24-.28-.51-.53-.82-.73-1.61-1.06-3.56-.76-4.5,1-.55,1.02-.65,2.22-.74,3.38-.56,7.26-.74,16.39-1.3,23.65-.23,2.96-.55,6.15-2.52,8.37-.91-1.5-4.7-3.68-7.08-3.07-1.44.37-2.08.82-3.18,1.96-1.19,1.22-1.1,3.16-1.26,4.75,0,.05-2.35.21-2.62.24-1.39.17-2.47.65-3.46,1.64-.88.88-1.87,2.48-3.28,2.48-8.66,0-11.81,10.73-10.24,17.65,1.41,6.22,3.09,8.93,7.05,13.58,1.99,2.34,2.74,5.58,2.74,5.58"/><path class="cls-2" d="m45.98,57.24c-.39-3.33-1.79-6.48-3.62-7.45-.85-.45-2.53-.76-3.46-1-2.6-.65-5.2-1.31-7.87-1.63-1.98-.24-5.73-1.09-6.44,1.54-.53,1.97,1.49,3.79,2.86,4.84,2.35,1.8,4.93,3.31,7.65,4.49-.07,2.26.13,4.52.57,6.74"/><path class="cls-2" d="m20.32,43.92c3.43,0,3.82,2.74,4.21,4.02"/><path class="cls-2" d="m32.76,43.53c.12.91,0,3.92,0,3.92"/><path class="cls-2" d="m15.12,51.76c1.64,3.7,3.4,6.66,5.54,10.09.65,1.04,1.38,1.97,2.71,1.96.6,0,1.19-.17,1.77-.34.96-.28,2-.6,2.59-1.42.41-.57.53-1.3.48-2-.15-2.1-1.44-5.87-2.21-7.81"/><path class="cls-2" d="m7.19,59.1c1.18.2,2.48.51,3.33,1.86,1.53,2.43,3.62,6.17,7.18,4.28,1.39-.74,2.48-3.4,1.31-5.88"/><path class="cls-2" d="m34.26,58.28c-.93,1.91-4.14,2.51-5.71,1.38"/><path class="cls-2" d="m23.19,68.12c.52-2.35,1.95-4.65,2.95-5.04"/><path class="cls-3" d="m33.81,87.55c-2.68,4.2-7.38,6.48-12.37,5.53-4.13-.79-8.97-4.32-8.92-8.92"/></g></svg>