<?xml version="1.0" encoding="UTF-8"?><svg id="_圖層_2" xmlns="http://www.w3.org/2000/svg" viewBox="0 0 50.52 98.63"><defs><style>.cls-1{fill:#ffe7d9;}.cls-2{stroke-width:2.81px;}.cls-2,.cls-3{fill:none;stroke:#1a4369;stroke-linecap:round;stroke-linejoin:round;}.cls-3{stroke-width:4.68px;}</style></defs><g id="design"><path class="cls-1" d="m13,87.14c-.31,4.74,1.61,7.66,6.08,8.64,4.83,1.07,8.56-.91,10.06-5.39l3.89-1.51c1.22-1.95,1.75-3.43,2.74-5.28,1.91-3.59,4.19-5.85,6.53-9.17,5.52-7.86,7.87-18.91,3.88-27.65-.45-.99-.99-1.99-1.9-2.59-1.2-.8-2.78-.72-4.16-.32-1.38.4-2.67,1.09-4.06,1.46l-1.27.34c-.43-1.87-1.15-3.97-2.38-6.09-.97-1.66-2.87-3.4-4.78-3.18-.96-3.79-2.05-6.66-3.47-9.95-2.26-5.21-6.24-13.49-9.2-18.34-1.12-1.84-2.96-6.19-6.13-5.74-2.61.37-2.73,2.75-2.06,4.23,1.87,4.13,4.18,10.07,5.85,15.12,1.94,5.89,3.88,11.51,5.76,16.45.71,1.85-2.45,5.07-4.68,6.26-.99.53-3.49,1.63-4.32,2.38-1.54,1.4-1.24,3.54-3.09,4.5-1.96,1.02-2.51,1.98-3.53,3.97-1.18,2.31.31,5.9.88,8.38.68,2.95,1.38,5.25,2.42,8.09,1.67,4.57,2.99,7.75,4.44,12.39l2.48,3Z"/><path class="cls-2" d="m17.78,41.7c4.15-.88,8.38-4.85,11.56-4.5"/><path class="cls-2" d="m34.65,44.37c.21,1.32.42,2.63.64,3.95.21,1.31.42,2.65.1,3.94-.32,1.28-1.3,2.5-2.61,2.66"/><path class="cls-2" d="m11.86,45.93c2.18-.09,4.37-.1,6.54-.32,2.47-.25,5.93-2.01,8.37-.99,1.23.52,1.64,2.13,2.13,3.23.77,1.7,1.48,3.43,2.33,5.09.77,1.51,1.48,3.04,1.23,4.79-.3,2.08-2.07,3.86-4.15,4.17"/><path class="cls-2" d="m11.2,53.17c3.69.51,5.69.34,9.19-.1.48-.06.98,0,1.41.23.45.23.75.67,1.03,1.1,1.26,1.91,2.52,3.83,3.79,5.74.48.72.97,1.51.96,2.38-.01,1.22-1.9,2.65-2.83,3.44-1.27,1.08-2.66,2.93-4.49,2.35-1.72-.55-2.3-1.9-2.13-3.14.12-.84.92-1.7,1.71-2.67-1.75.58-4.95.58-6.99.19"/><path class="cls-2" d="m28.8,71.69c-.71-4.23.16-7.81,1.53-10.41"/><path class="cls-1" d="m42.3,74.42c5.52-7.86,7.87-18.91,3.88-27.65-.45-.99-.99-1.99-1.9-2.59-1.2-.8-2.78-.72-4.16-.32-1.38.4-2.67,1.09-4.06,1.46l-.38.31c-1.62.68-2.67,2.68-2.41,4.06.16.85.84,1.34,1.59,1.76,1.23.71,1.88.74,3.47.91-.35.97-.76,1.79-1.23,2.26l-2.19,4.82c-1.96,8.85-.28,14.54,7.39,14.97Z"/><path class="cls-3" d="m31.67,91l1.36-2.13c1.15-1.83,1.75-3.43,2.74-5.28,1.91-3.59,4.19-5.85,6.53-9.17,5.52-7.86,7.87-18.91,3.88-27.65-.45-.99-.99-1.99-1.9-2.59-1.2-.8-2.78-.72-4.16-.32-1.38.4-2.67,1.09-4.06,1.46l-1.27.34c-.43-1.87-1.15-3.97-2.38-6.09-.97-1.66-2.87-3.4-4.78-3.18-.96-3.79-2.05-6.66-3.47-9.95-2.26-5.21-6.24-13.49-9.2-18.34-1.12-1.84-2.96-6.19-6.13-5.74-2.61.37-2.73,2.75-2.06,4.23,1.87,4.13,4.18,10.07,5.85,15.12,1.94,5.89,3.88,11.51,5.76,16.45.71,1.85-2.45,5.07-4.68,6.26-.99.53-3.49,1.63-4.32,2.38-1.54,1.4-1.24,3.54-3.09,4.5-1.96,1.02-2.51,1.98-3.53,3.97-1.18,2.31.31,5.9.88,8.38.68,2.95,1.38,5.25,2.42,8.09,1.67,4.57,2.99,7.75,4.44,12.39l.21,2.64"/><path class="cls-2" d="m35.68,45.64c-1.62.68-2.67,2.68-2.41,4.06.16.85.84,1.34,1.59,1.76,1.23.71,1.88.74,3.47.91-.35.97-.76,1.79-1.23,2.26"/><path class="cls-3" d="m32.06,90.55c-2.68,4.2-7.38,6.48-12.37,5.53-4.13-.79-8.97-4.32-8.92-8.92"/></g></svg>