<?xml version="1.0" encoding="UTF-8"?><svg id="_圖層_2" xmlns="http://www.w3.org/2000/svg" viewBox="0 0 19.51 53.2"><defs><style>.cls-1{fill:#b2d2d9;}.cls-2{fill:none;stroke:#1a4369;stroke-linecap:round;stroke-linejoin:round;stroke-width:1.7px;}</style></defs><g id="design"><g id="VKV__71_52_"><path class="cls-1" d="m4.31,1.63C1.19,1.07-1.08,4.06.54,7.78c.35,1.26,1.06,2.79,1.8,4.22.64,1.25.66,2.3,1.16,3.2,1.59,2.87,1.33,4.27,1.78,6.48.77,3.84,1.19,7.73,1.52,11.63.17,1.99.31,3.98.46,5.97.12,1.64.01,3.54.63,5.09.34.84.92,3.03,1.03,3.95.54,4.89,9.48,4.42,8.87.16-.22-1.43-.07-4.41-.29-6.07-.27-1.97-.37-3.78-.51-5.04-.27-2.33-.16-5.19-.23-9.25-.07-4.06-.15-9.64.17-12.46.34-3.02-.93-8.57-2.03-10.1s-2.34-2.03-3.64-2.57l-6.94-1.34Z"/><path class="cls-2" d="m1.75,12.64c.45.87.89,1.66,1.25,2.31,1.59,2.87,1.83,4.53,2.27,6.74.54,2.69.6,5.54.96,8.26.7,5.41.65,10.04,1.43,15.44.39,2.73.3,4.65,1.92,5.92.54.43,2.27.79,3.2.94.58.1,1.45.2,2.76-.11,1.14-.29,3.3-1.47,3.09-3.89-.36-4.25-1.09-8.51-1.24-12.75-.13-3.54-.11-7.09-.17-10.63-.07-4.06.3-8.2-.1-12.31-.34-2.69-.93-5.02-1.62-6.67-.39-.95-.81-1.52-1.22-1.94-.26-.27-1.03-.74-2.03-1.08-2.4-.82-6.15-1.72-7.6-2.02"/></g></g></svg>