<?xml version="1.0" encoding="UTF-8"?><svg id="_圖層_2" xmlns="http://www.w3.org/2000/svg" viewBox="0 0 55.1 59.87"><defs><style>.cls-1{fill:#ffe7d9;}.cls-2{stroke-width:2.81px;}.cls-2,.cls-3{fill:none;stroke:#1a4369;stroke-linecap:round;stroke-linejoin:round;}.cls-3{stroke-width:4.68px;}</style></defs><g id="design"><path class="cls-1" d="m14.84,48.41s-3.28-3.27-5.28-5.6c-3.96-4.64-5.64-7.36-7.05-13.58-1.57-6.93,1.58-17.65,10.24-17.65,1.41,0,2.4-1.6,3.28-2.48.99-.99,2.06-1.46,3.46-1.64.28-.03,2.59-.21,2.62-.24,2.02-2.61,3.61-5.34,7.26-4.63.47.09,2.98,1.37,3.18,1.2,3.63-3.06,12.42-1.25,12.74,4.97l.47,4.45c1.7,0,5.47,2.59,5.89,6.5.47,4.43,1.58,9.11.3,13.5-1.36,4.65-5.81,8.04-9.73,10.55-3.43,2.19-9.05,3.64-10.73,7.63-1.5,6.55-16.81,7.89-16.65-2.99Z"/><path class="cls-2" d="m45.24,14.2c-2.5-.18-4.94-.19-7.41-.62-1.31-.23-2.83-.21-3.77.73-.83.83-.94,2.18-.59,3.3,1.22,3.89,5.54,6.65,9.42,7.08-.38-.46-1.19-.28-1.53.21-.34.49-.33,1.13-.27,1.72.12,1.09.41,2.16.84,3.16"/><path class="cls-3" d="m12.52,48.39s-.75-3.25-2.74-5.58c-3.96-4.64-5.64-7.36-7.05-13.58-1.57-6.93,1.58-17.65,10.24-17.65,1.41,0,2.4-1.6,3.28-2.48.99-.99,2.06-1.46,3.46-1.64.28-.03,2.59-.21,2.62-.24,2.02-2.61,3.61-5.34,7.26-4.63.47.09,2.98,1.37,3.18,1.2,3.63-3.06,12.42-1.25,12.74,4.97l.47,4.45c1.7,0,5.47,2.59,5.89,6.5.47,4.43,1.58,9.11.3,13.5-1.36,4.65-5.81,8.04-9.73,10.55-3.43,2.19-6.94,4.02-8.62,8.02"/><path class="cls-2" d="m20.32,8.15c3.43,0,3.82,2.74,4.21,4.02"/><path class="cls-2" d="m15.12,15.99c1.64,3.7,3.4,6.66,5.54,10.09.65,1.04,1.38,1.97,2.71,1.96.6,0,1.19-.17,1.77-.34.96-.28,2-.6,2.59-1.42.41-.57.53-1.3.48-2-.15-2.1-1.44-5.87-2.21-7.81"/><path class="cls-2" d="m7.19,23.34c1.18.2,2.48.51,3.33,1.86,1.53,2.43,3.62,6.17,7.18,4.28,1.39-.74,2.48-3.4,1.31-5.88"/><path class="cls-2" d="m35.51,21.92c-1.06,2.28-4.16,3.23-6.96,1.97"/><path class="cls-2" d="m32.76,7.76c.83,1.62,1.74,3.75,2.39,5.98"/><path class="cls-2" d="m23.19,32.35c.52-2.35,1.95-4.65,2.95-5.04"/><path class="cls-3" d="m33.81,51.78c-2.68,4.2-7.38,6.48-12.37,5.53-4.13-.79-8.97-4.32-8.92-8.92"/></g></svg>