<svg xmlns="http://www.w3.org/2000/svg" xmlns:xlink="http://www.w3.org/1999/xlink" viewBox="0 0 109.23 107.82"><defs><style>.cls-1,.cls-2,.cls-3,.cls-4,.cls-5,.cls-6,.cls-7,.cls-8,.cls-9,.cls-10,.cls-11,.cls-12,.cls-13,.cls-14,.cls-15,.cls-16,.cls-17{fill:none;}.cls-2,.cls-18,.cls-5,.cls-6,.cls-7,.cls-8,.cls-19,.cls-9,.cls-20,.cls-10,.cls-21,.cls-11,.cls-22,.cls-23,.cls-13,.cls-14,.cls-15,.cls-24,.cls-17{stroke-linecap:round;stroke-linejoin:round;}.cls-2,.cls-18,.cls-5,.cls-6,.cls-8,.cls-19,.cls-9,.cls-20,.cls-10,.cls-21,.cls-11,.cls-22,.cls-23,.cls-13,.cls-14,.cls-15,.cls-24,.cls-17{stroke:#1a4369;}.cls-2,.cls-24{stroke-width:1.42px;}.cls-18,.cls-25,.cls-19,.cls-20,.cls-21,.cls-23{fill:#1a4369;}.cls-18,.cls-9{stroke-width:1.13px;}.cls-3{clip-path:url(#clippath-1);}.cls-4{isolation:isolate;}.cls-26,.cls-24{fill:#fff;}.cls-27,.cls-28{fill:#ffe7d9;}.cls-29,.cls-22{fill:#b2d2d9;}.cls-30{fill:#e0edf0;}.cls-5{stroke-dasharray:0 0 .55 1.39;}.cls-5,.cls-8,.cls-11,.cls-17{stroke-width:.57px;}.cls-6{stroke-width:.94px;}.cls-7{stroke:#d8e9ec;stroke-dasharray:0 0 0 4.54;}.cls-7,.cls-22,.cls-23,.cls-15{stroke-width:1.7px;}.cls-19{stroke-width:1.58px;}.cls-28,.cls-12{mix-blend-mode:multiply;}.cls-20{stroke-width:1.87px;}.cls-10{stroke-width:1.56px;}.cls-21{stroke-width:1.76px;}.cls-11{stroke-dasharray:0 0 .57 1.42;}.cls-13{stroke-width:1.64px;}.cls-14{stroke-width:.85px;}.cls-16{clip-path:url(#clippath);}.cls-17{stroke-dasharray:0 0 .6 1.5;}</style><clipPath id="clippath"><circle class="cls-26" cx="69.28" cy="67.85" r="38.27"/></clipPath><clipPath id="clippath-1"><path class="cls-1" d="m107.55,39.68c0-21.13-17.13-38.27-38.27-38.27-6.28,0-12.2,1.52-17.42,4.2-3.75-3.47-8.76-5.62-14.28-5.62-11.62,0-21.05,9.42-21.05,21.05,0,1.39.14,2.75.4,4.06C6.98,29.33,0,39.19,0,50.68s6.68,20.91,16.29,25.27c-3.4,3.11-5.54,7.57-5.54,12.53,0,9.39,7.61,17.01,17.01,17.01,6.79,0,12.63-3.98,15.35-9.73,6.84,6.42,16.04,10.36,26.17,10.36,21.13,0,38.27-17.13,38.27-38.27,0-4.98-.96-9.72-2.69-14.08,1.73-4.36,2.69-9.11,2.69-14.08Z"/></clipPath></defs><g class="cls-4"><g id="_圖層_2"><g id="design"><circle class="cls-26" cx="69.28" cy="67.85" r="38.27"/><g class="cls-16"><line class="cls-7" x1="11.05" y1="69.15" x2="70.58" y2="9.62"/><line class="cls-7" x1="14.05" y1="72.15" x2="73.58" y2="12.62"/><line class="cls-7" x1="17.04" y1="75.15" x2="76.57" y2="15.62"/><line class="cls-7" x1="20.04" y1="78.14" x2="79.57" y2="18.61"/><line class="cls-7" x1="23.03" y1="81.14" x2="82.56" y2="21.61"/><line class="cls-7" x1="26.03" y1="84.13" x2="85.56" y2="24.6"/><line class="cls-7" x1="29.03" y1="87.13" x2="88.56" y2="27.6"/><line class="cls-7" x1="32.02" y1="90.13" x2="91.55" y2="30.6"/><line class="cls-7" x1="35.02" y1="93.12" x2="94.55" y2="33.59"/><line class="cls-7" x1="38.01" y1="96.12" x2="97.55" y2="36.59"/><line class="cls-7" x1="41.01" y1="99.11" x2="100.54" y2="39.58"/><line class="cls-7" x1="44.01" y1="102.11" x2="103.54" y2="42.58"/><line class="cls-7" x1="47" y1="105.11" x2="106.53" y2="45.58"/><line class="cls-7" x1="50" y1="108.1" x2="109.53" y2="48.57"/><line class="cls-7" x1="52.99" y1="111.1" x2="112.53" y2="51.57"/><line class="cls-7" x1="55.99" y1="114.09" x2="115.52" y2="54.56"/><line class="cls-7" x1="58.99" y1="117.09" x2="118.52" y2="57.56"/><line class="cls-7" x1="61.98" y1="120.09" x2="121.51" y2="60.56"/><line class="cls-7" x1="64.98" y1="123.08" x2="124.51" y2="63.55"/><line class="cls-7" x1="67.97" y1="126.08" x2="127.51" y2="66.55"/></g><path class="cls-15" d="m69.28,106.97c-10.45,0-20.27-4.07-27.66-11.46-15.25-15.25-15.25-40.07,0-55.32,7.39-7.39,17.21-11.46,27.66-11.46s20.27,4.07,27.66,11.46c15.25,15.25,15.25,40.07,0,55.32-7.39,7.39-17.21,11.46-27.66,11.46Z"/><g class="cls-3"><g id="arm_u"><path class="cls-29" d="m55.38,60.78c1.46.42,2.33,1.54,2.44,2.89.12,1.35-.52,2.92-2.07,4.24-.88.97-2.19,2.04-3.47,3.01-1.11.84-1.62,1.77-2.46,2.37-1.34.94-2.06,1.66-2.59,2.32-.53.66-.88,1.26-1.43,1.9-.95,1.11-1.77,2.15-2.59,3.29-.82,1.14-1.63,2.38-2.56,3.87-.48.76-1.01,1.63-1.52,2.53-.51.9-1,1.76-1.47,2.59-.78,1.36-1.35,2.89-2.57,3.98-.66.59-2.09,2.18-2.54,2.9-.81,1.27-2.48,1.92-4.01,1.8-1.53-.12-2.72-1.18-3.38-2.64-.66-1.46-.8-3.08-.11-3.96.7-.88,1.7-3.12,2.49-4.15.94-1.23,1.74-2.57,2.4-3.52.61-.88,1.29-2.08,1.95-3.35s1.31-2.59,2.03-3.97c.72-1.38,1.5-2.9,2.26-4.46.76-1.56,1.54-3.23,2.03-4.53.53-1.4,1.73-3.24,2.98-4.82,1.25-1.58,2.57-2.91,3.39-3.35,1.64-.9,2.93-.81,4.27-.73,1.3.36,2.28.62,3.26.89.98.27,1.95.53,3.26.89Z"/><path class="cls-25" d="m26.19,99.17c.22.12.42.21.6.28.94.35,3.05.68,4.07.38,1.17-.34,2.11-.97,2.94-1.98.44-.53.82-1.12,1.22-1.75.2-.32.42-.65.65-1,.82-1.21,1.58-2.44,2.53-4.1.3-.53.61-1.08.92-1.65.49-.9,1-1.82,1.54-2.7,1-1.65,1.73-2.78,2.44-3.77.47-.66.88-1.29,1.28-1.91l.4-.62c.48-.74,1.02-1.52,1.67-2.28l.36-.42c.41-.48.79-.93,1.28-1.42.73-.72,1.61-1.44,2.75-2.24l.14-.1c.58-.41,1.28-.9,2-1.45.39-.3.5-.85.23-1.24-.27-.39-.8-.47-1.2-.17-.71.53-1.39,1.01-1.96,1.42l-.14.1c-1.23.87-2.18,1.64-2.99,2.44-.55.54-.98,1.05-1.39,1.54l-.35.41c-.72.84-1.3,1.69-1.82,2.48l-.41.63c-.39.6-.78,1.21-1.23,1.84-.74,1.03-1.49,2.2-2.51,3.89-.55.9-1.07,1.85-1.58,2.77-.31.56-.61,1.1-.91,1.62-.93,1.61-1.66,2.8-2.45,3.97-.25.36-.47.71-.68,1.04-.38.6-.72,1.12-1.08,1.56-.6.72-1.21,1.14-2.04,1.38-.5.15-2.22-.05-3.01-.35-.44-.16-.97-.48-1.63-1.57-.27-.46-.65-1.37-.81-2.4-.16-1.03-.06-1.9.26-2.38.64-.95,1.28-1.82,1.95-2.73.28-.39.57-.77.86-1.18.89-1.23,1.96-2.75,3.11-4.73.9-1.55,1.67-3.04,2.35-4.35l.85-1.66c.33-.66.66-1.29.98-1.92.45-.86.86-1.75,1.29-2.68.44-.96.94-2.03,1.53-3.17.64-1.25,1.33-2.45,1.98-3.48.71-1.05,1.46-2.05,2.22-2.94.71-.84,1.41-1.56,2.06-2.14.74-.66,1.27-.9,1.64-1.04.15-.05.86-.17,1.82-.05,1.31.16,2.91.47,4.02.7,1.4.29,2.64.58,3.27.74.46.12.94-.17,1.07-.65.14-.48-.12-.96-.58-1.07-.65-.17-1.92-.47-3.34-.76-1.14-.24-2.79-.55-4.15-.72-.99-.12-2.04-.06-2.62.14-.77.29-1.48.73-2.22,1.39-.72.63-1.47,1.42-2.25,2.33-.8.95-1.6,2-2.36,3.13-.7,1.09-1.41,2.35-2.08,3.65-.61,1.18-1.11,2.27-1.52,3.15-.47,1.01-.87,1.88-1.3,2.7-.33.63-.65,1.27-.99,1.93l-.85,1.66c-.67,1.29-1.42,2.76-2.3,4.27-1.1,1.9-2.14,3.37-3,4.56-.29.4-.57.78-.85,1.16-.69.93-1.34,1.81-2,2.8-.76,1.13-.72,2.64-.56,3.7.2,1.27.66,2.4,1.03,3.02.67,1.1,1.31,1.66,1.85,1.98Z"/></g><g id="arm_d"><path class="cls-29" d="m27.67,57s.93.31,1.01.9c.09.66.08,1.61.22,2.66.27,1.98,1.1,5.34,1.49,7.5.4,2.16,1.7,9.97,2.04,11.77.34,1.8.62,3.28.62,3.28,0,0,.37,1.92.81,4.27.22,1.17-.43,2.98-.24,4.7.32,3.98-7.43,4.8-8.74.99-.3-1.85-1.35-3.63-1.63-5.23-.62-3.49-1.53-15.1-1.54-20.2-.01-3.81.07-7.68,0-9.91-.03-.76.83-1.46.81-1.78l5.16,1.06Z"/><path class="cls-27" d="m22.44,55.95c-.16-2.91,5.43-3.48,5.27,1.03,0,.23.97,1.56.34,1.86-1.29.63-4.83.16-5.65-.49-.3-.24.1-2.02.04-2.4Z"/><path class="cls-25" d="m21.53,55.12c.47-.04.88.35.93.87.05.61.09,2.22.13,4.45.05,2.53.12,5.68.24,8.43l.03.64c.25,5.75.64,14.45,1.21,18.17.11.7.21,1.4.31,2.12.13.92.26,1.87.43,2.91.08.52-.22,1.01-.68,1.09-.46.08-.91-.27-.99-.78-.17-1.06-.31-2.02-.44-2.96-.1-.71-.19-1.39-.3-2.08-.6-3.84-.98-12.6-1.24-18.4l-.03-.64c-.12-2.78-.19-5.94-.24-8.48-.04-2.02-.08-3.77-.13-4.31-.05-.52.3-.99.76-1.02Z"/><path class="cls-25" d="m28.47,56s.02,0,.03,0c.47-.02.87.39.9.91.21,3.82,1.17,7.99,2.1,12.02.37,1.59.72,3.14,1.03,4.64l.31,1.5c1.09,5.32,2.03,9.91,2.49,16.46.04.52-.31.97-.78,1-.47.03-.88-.37-.91-.89-.45-6.42-1.33-10.73-2.45-16.18l-.31-1.5c-.3-1.48-.66-3.02-1.02-4.59-.95-4.12-1.93-8.37-2.15-12.38-.03-.51.31-.95.77-.99Z"/><path class="cls-29" d="m30.23,65.29l-.8-6.76c-1.4-.34-5.43-.18-8.76.38l.54,7.16c2.49,1.55,6.77,1.67,9.02-.79Z"/><path class="cls-25" d="m23.82,57.56c2.44-.21,4.74-.22,5.78.04.36.09.63.42.68.82l.8,6.76c.03.29-.05.59-.24.79-2.5,2.74-7.2,2.69-10.02.93-.25-.16-.42-.45-.44-.77l-.54-7.16c-.04-.49.27-.93.7-1,1.06-.18,2.18-.32,3.28-.41Zm4.86,1.8c-1.45-.15-4.34-.03-7.09.37l.43,5.75c2.15,1.11,5.42,1.12,7.31-.58l-.65-5.54Z"/><path class="cls-29" d="m23.16,87.43l10.28-2.37c-.84-8.62-1.11-17.57-3.01-21.9-3.96.44-6.27.36-9.85.64-.66,6.39,2.16,23.67,2.58,23.63Z"/><path class="cls-25" d="m29.72,62.21c.35-.03.69.18.85.55.03.08.85,2,1.22,3.4.5,1.88.79,3.25,1.61,8.11.39,2.32.57,4.15.75,6.08.13,1.39.27,2.83.5,4.55.07.52-.25,1-.72,1.06s-.9-.3-.97-.82c-.23-1.76-.37-3.22-.51-4.63-.18-1.89-.35-3.68-.73-5.92-.81-4.78-1.09-6.11-1.57-7.92-.33-1.25-1.12-3.1-1.13-3.11-.2-.48-.03-1.04.4-1.26.09-.05.19-.08.29-.08Z"/><path class="cls-25" d="m21.21,62.96s.06,0,.08,0c.47.01.85.44.85.97,0,.05,0,1.24-.17,2.74-.05.46-.11.89-.17,1.3-.23,1.62-.43,3.02.07,6.2.39,2.58.8,4.95,1.16,7.05.41,2.38.77,4.43.97,6.1.06.52-.26.99-.73,1.05-.47.06-.89-.31-.96-.84-.2-1.62-.55-3.64-.95-5.99-.36-2.1-.78-4.49-1.17-7.09-.55-3.49-.32-5.11-.07-6.82.06-.4.11-.8.16-1.24.15-1.38.15-2.5.15-2.51,0-.49.34-.89.77-.93Z"/><path class="cls-25" d="m21.24,63.27s.03,0,.04,0h4.31c.31,0,.57.28.58.63,0,.35-.24.63-.56.63h-4.31c-.31,0-.57-.28-.58-.63,0-.33.22-.61.51-.63Z"/></g><g id="hand"><path class="cls-27" d="m20.31,49.73c.1.65.23,1.31.38,1.91.41,1.67,1.49,3.4,1.47,4.54-.03,2.05,1.25,2.76,2.46,2.96,1.37.22,2.94-.44,3.36-2.48,0,0,.82.06,1.37-.91.55-.97,1.28-2.54,1.62-3.5.09-.24.02-.62-.11-1.07-3.55-.21-7.11-.61-10.54-1.46Z"/><path class="cls-27" d="m21.51,55.77c-.65-2.27-1.92-3.98-2.87-6.16-1.19-2.72-1.7-4.67-2.29-7.02-.29-1.16-.65-2.89-.68-4.03-.03-1.14-.2-3.2,1.33-3.1,1.18.07,1.26,1.41,1.4,2.24.29,1.79.55,3.39,1.42,5.46-.3-1.17-.62-2.85-.71-4.03-.18-2.34-.45-4.59.15-6.44.38-1.16,1.75-1.5,2.4-.75.39.45.39,1.41.45,2.11.16,1.8.16,2.31.41,4.13.18,1.37.36,2.59.86,3.68-.22-1.99-.3-3.46-.29-4.85.02-2.02.12-4.52.96-6.38.16-.35.42-.68.78-.82.53-.21,1.08-.13,1.46.24.68.67.42,2.97.38,4.11-.06,1.57-.15,3.78.15,5.33.23,1.16.91,2,.91,2,0,0,1.95-1.77,2.93-2.31,1.19-.66,3.21,1.17,4.41,1.93,1.07.67,2.69,2.07,1.88,3.31-.51.77-1.43.83-2.24.54-.88-.32-1.82-1.93-2.54-2.1-.89-.21-1.95,1.58-2.26,2.48-.21.62-.08,1.75.24,2.39.5.99,2.18,1.24,2.87.91.67-.32.34-3.52,2.98-3.56,1.83-.03.88,2.36.74,3.38-.13.97-.73,2.4-1.78,3.47-.8.81-2.15,1.5-3.48,1.73-1.03.18-1.35,1.04-1.68,1.46-.2.25-.45.69-.86,1.39l-7.42-.72Z"/><path class="cls-6" d="m25.53,52.32s-.69-4.1-4.11-6.35"/><path class="cls-10" d="m28.75,56.8c.41-.7.84-1.45,1.04-1.7.33-.42.65-1.28,1.68-1.46,1.34-.23,2.68-.91,3.48-1.73,1.05-1.06,1.65-2.49,1.78-3.47.13-1.03,1.09-3.41-.74-3.38-2.64.04-2.31,3.24-2.98,3.56-.69.33-2.37.07-2.87-.91-.32-.64-.46-1.77-.24-2.39.31-.91,1.37-2.69,2.26-2.48.72.17,1.66,1.78,2.54,2.1.8.29,1.73.23,2.24-.54.82-1.24-.81-2.64-1.88-3.31-1.2-.76-3.22-2.59-4.41-1.93-.98.55-2.93,2.31-2.93,2.31,0,0-.68-.84-.91-2-.3-1.54-.21-3.75-.15-5.33.04-1.14.3-3.44-.38-4.11-.38-.38-.93-.46-1.46-.24-.36.14-.62.47-.78.82-.84,1.86-.94,4.36-.96,6.38-.01,1.39.07,2.87.29,4.85-.5-1.09-.68-2.32-.86-3.68-.24-1.82-.25-2.33-.41-4.13-.06-.7-.06-1.65-.45-2.11-.65-.75-2.02-.41-2.4.75-.6,1.84-.33,4.1-.15,6.44.09,1.17.41,2.86.71,4.03-.87-2.07-1.13-3.67-1.42-5.46-.14-.84-.22-2.17-1.4-2.24-1.52-.09-1.35,1.96-1.33,3.1.03,1.14.38,2.87.68,4.03.59,2.34,1.11,4.3,2.29,7.02.95,2.18,2.06,3.9,2.72,6.17l.08.42"/><path class="cls-10" d="m28.64,57.06c-.77,1.47-2.26,2.37-3.95,2.19-1.39-.14-3.11-1.17-3.22-2.7"/></g><path class="cls-23" d="m83.15,40.55c1.45-3.12,4.62-9.22,4.41-13.63-.42-8.67-8.09-14.99-17.59-15.49-9.03-.48-18.32,4-18.49,12.41-.05,2.59,1.72,11.78,3.16,16.13l28.52.58Z"/><path class="cls-29" d="m85.83,60.32c-3.17.1-4.77,3.5-2.41,6.8.61,1.16,1.62,2.51,2.64,3.75.88,1.08,1.13,2.11,1.81,2.89,2.16,2.48,2.19,3.9,3.09,5.96,1.55,3.59,2.78,7.31,3.91,11.06.58,1.91,1.13,3.83,1.69,5.74.46,1.58.75,3.46,1.68,4.84.5.75,1.54,2.77,1.83,3.64,1.54,4.67,10.2,2.35,8.71-1.69-.51-1.36-.99-4.3-1.55-5.88-.67-1.87-1.15-3.62-1.55-4.83-.75-2.22-1.24-5.05-2.15-9-.92-3.95-2.16-9.4-2.43-12.22-.29-3.03-2.69-8.19-4.09-9.45-1.39-1.26-2.72-1.49-4.09-1.75l-7.07.13Z"/><path class="cls-15" d="m85.62,71.62c.62.76,1.22,1.44,1.71,2,2.16,2.48,2.73,4.05,3.63,6.12,1.09,2.52,1.75,5.29,2.66,7.88,1.82,5.15,2.73,9.68,4.62,14.8.95,2.59,1.27,4.48,3.11,5.39.62.3,2.39.3,3.33.25.59-.03,1.46-.11,2.68-.69,1.06-.52,2.92-2.12,2.22-4.45-1.23-4.08-2.84-8.1-3.87-12.21-.87-3.44-1.59-6.91-2.39-10.36-.92-3.95-1.41-8.08-2.66-12.02-.89-2.56-1.96-4.72-2.97-6.18-.58-.84-1.11-1.31-1.6-1.64-.31-.21-1.16-.51-2.21-.64-2.52-.3-6.37-.4-7.86-.39"/><path class="cls-29" d="m114.22,72.27s-.97.02-1.17.51c-.23.55-.43,1.38-.8,2.24-.7,1.64-2.25,4.33-3.11,6.1s-3.85,8.18-4.58,9.66c-.73,1.47-1.33,2.68-1.33,2.68,0,0-.78,1.57-1.73,3.48-.48.96-.25,2.7-.81,4.14-1.2,3.36,6.09,6.15,8.2,3.19.7-1.52,2.11-2.79,2.73-4.1,1.37-2.86,4.84-12.68,5.98-17.09.86-3.3,1.64-6.67,2.21-8.59.19-.65-.48-1.49-.38-1.76l-5.21-.47Z"/><path class="cls-15" d="m109.78,104.35c.7-1.52,1.23-2.85,1.83-4.17,1.46-3.24,3.89-11.13,5.42-16.07,1.35-4.36,2.83-9.97,3.22-11.02"/><path class="cls-15" d="m99.96,100.42c2.05-6,4.08-9.74,6.64-14.71,2.22-4.32,5.28-9.1,6.78-13.73"/><path class="cls-22" d="m109.9,78.77l2.27-5.64c1.42.08,5.27,1.3,8.35,2.68l-2.11,6.06c-2.74.68-6.89-.37-8.51-3.1Z"/><path class="cls-29" d="m111.78,99.85l-9.37-4.81c2.73-7.25,4.99-14.93,7.77-18.18,3.72,1.44,5.96,1.99,9.34,3.19-.79,5.72-7.35,19.93-7.74,19.79Z"/><path class="cls-15" d="m110.79,77.04s-1.22,1.44-1.86,2.51c-.9,1.5-1.49,2.64-3.32,6.52-1.52,3.24-2.1,5.41-3.55,8.85"/><path class="cls-13" d="m112.62,57.42c-.63-.87-1.74-.93-2.56-.24-.64.53-.72,1.85.17,2.21"/><path class="cls-29" d="m43.71,139.03c-.17,1.88,11.68,7.05,18.05,7.48,5.07.53,10.1.6,15.08.11,7.26-.57,19.04-6.03,18.35-7.28l-.66-8.1c-1.06-9.87-1.79-17.74-1.99-27.7.4-8.52.44-16.86-.53-28.85.4-5.3.55-12.25-3.74-14.25-1.49-.55-9.08-4.45-10.82-5-2.23-.71-3.42-1.71-3.7-3.57h-8.68c-.28,1.85-1.47,2.86-3.7,3.57-1.74.55-9.32,4.45-10.81,5-3.92,1.75-4,9.29-3.75,14.25-.83,12.36-.53,20.33-.13,28.85-1.16,13.73-1.65,17.8-2.39,28.45l-.57,7.04Z"/><path class="cls-27" d="m77.77,55.59c-.89-.28-3.21-.79-3.73-2.09l.45-4.34c.6-2.74-10.56-2.93-10.17,0l.45,4.34c-.52,1.29-2.71,1.68-3.6,1.96,2.08,1.85,4.07,2.87,6.86,3.04.24.01,1.22,2.19,1.46,2.19.24,0,.93-2.17,1.16-2.18,2.79-.11,5.06-1.08,7.12-2.94Z"/><path class="cls-28" d="m64.26,54.92c3.34.86,6.77.87,10.3.02-.98-2.02-1.09-4.02-.27-6.02.49-.11.35-.89-.42-1.27-1-.49-2.65-.66-4.35-.66-1.66,0-3.2.19-4.27.56-.9.3-1.24,1.15-.81,1.35.92,2.09.81,4.1-.18,6.03Z"/><path class="cls-15" d="m50.56,59.59c1.49-.55,9.07-3.59,10.81-4.14,2.23-.71,3.42-1.71,3.7-3.57.2-1.33-.1-2.55-.75-2.71"/><path class="cls-15" d="m74.49,49.16c-.65.17-.95,1.38-.75,2.71.28,1.85,1.47,2.86,3.7,3.57,1.74.55,9.32,3.59,10.81,4.14"/><path class="cls-15" d="m45.97,74.69c.38,11.36.17,20.08.59,28.85-.68,12.29-2.6,26.48-2.85,35.49.54,2.89,12.07,6.96,18.05,7.48s10.12.53,15.08.11,16.89-3.56,18.64-7.6c-.29-10.56-2.57-20.76-3.22-35.49.41-8.77.47-16.24.59-28.85"/><path class="cls-29" d="m77.33,53.01c-.98.2-3.11.55-4.53.85-.58.12-1.01.59-1.1,1.17l-.43,2.98c2.5.1,4.82-.77,6.98-2.51l-.91-2.49Z"/><path class="cls-15" d="m71.27,58.02l.43-2.98c.09-.58.52-1.05,1.1-1.17,1.42-.3,4.11-.66,5.1-.85l.91,2.49"/><path class="cls-14" d="m78.81,55.5c-1.2,1.25-5.64,3.08-7.63,2.91"/><path class="cls-29" d="m67.82,58.41l-.52-3.38c-.09-.58-.52-1.05-1.1-1.17-1.42-.3-4.11-.66-5.1-.85l-.91,2.49c2.01,1.76,4.98,2.63,7.63,2.91Z"/><path class="cls-15" d="m67.74,58.04l-.44-3.01c-.09-.58-.52-1.05-1.1-1.17-1.42-.3-4.11-.66-5.1-.85l-.91,2.49"/><path class="cls-14" d="m60.19,55.5c.83,1.08,5.64,3.08,7.63,2.91"/><line class="cls-9" x1="68.01" y1="58.28" x2="69.16" y2="61.55"/><path class="cls-9" d="m66.35,146.98c.89-31.04-.44-50.12.88-79.38.3-3.08,2.21-5.28,3.67-9.19"/><path class="cls-8" d="m74.33,58.19c-.04.08-.08.17-.12.26"/><path class="cls-11" d="m73.63,59.74c-1.02,2.3-2.26,5.37-2.34,7.32-1.48,31.84.55,53.74-.15,78.93"/><line class="cls-8" x1="64.33" y1="57.83" x2="64.44" y2="58.09"/><line class="cls-17" x1="65.02" y1="59.48" x2="67.17" y2="64.61"/><line class="cls-8" x1="67.46" y1="65.3" x2="67.57" y2="65.56"/><path class="cls-14" d="m89.19,93.66c-1.17.54-2.35,1.06-3.57,1.49-.71.25-1.43.56-2.19.64-.85.09-1.48-.24-2.25-.55-1.59-.64-3.18-1.26-4.68-2.08"/><path class="cls-14" d="m75.81,91.95c.02-3.41.05-6.12.28-9.59"/><path class="cls-14" d="m76.99,81.86c4.61.05,8.11.13,12.69.61.17.04.24.21.23.42,0,3.58,0,6.42-.23,9.94"/><path class="cls-8" d="m77.22,84.08c.1,0,.19,0,.28,0"/><path class="cls-5" d="m78.89,84.1c3.29.04,5.56.11,8.99.45"/><path class="cls-8" d="m88.57,84.61c.09,0,.19.02.28.03"/><path class="cls-25" d="m59.1,88.81c-1.41,5.77-2.97,11.5-4.45,17.26l-2.33,8.6c-.77,2.87-1.56,5.73-2.38,8.59-.04.15-.2.24-.35.2-.15-.04-.23-.2-.2-.34.71-2.88,1.44-5.76,2.2-8.63l2.25-8.62c1.57-5.73,3.07-11.47,4.71-17.19.04-.15.2-.24.35-.2.15.04.24.19.2.34Z"/><path class="cls-25" d="m81.36,105.87c1.89,4.82,3.61,9.7,5.32,14.59.83,2.45,1.61,4.92,2.38,7.39.78,2.47,1.5,4.96,2.18,7.46.04.15-.05.31-.2.35-.15.04-.3-.04-.35-.19l-2.36-7.39c-.79-2.46-1.62-4.91-2.45-7.35-1.61-4.91-3.38-9.77-5.05-14.66-.05-.15.03-.31.18-.36.15-.05.3.03.36.17Z"/><path class="cls-25" d="m79.45,100.89c.25.42.43.86.61,1.3.16.45.32.9.4,1.38.02.13-.07.26-.2.28-.1.02-.19-.03-.24-.11-.26-.41-.44-.86-.61-1.3-.16-.45-.31-.9-.4-1.38-.02-.13.06-.26.2-.28.1-.02.2.03.25.11Z"/><path class="cls-25" d="m48.78,98.79c-.31,1.42-.8,2.76-1.18,4.12-.41,1.35-.73,2.72-1.03,4.1-.03.15-.18.25-.34.22-.14-.03-.23-.16-.23-.29.07-1.45.38-2.88.78-4.26.42-1.38.93-2.72,1.44-4.04.05-.15.22-.22.37-.17.13.05.21.19.18.33Z"/><circle class="cls-30" cx="65.55" cy="56.14" r=".59"/><circle class="cls-30" cx="69.43" cy="68.11" r=".59"/><path class="cls-30" d="m68.36,80.62c0,.33.27.59.59.59s.59-.27.59-.59-.27-.59-.59-.59-.59.27-.59.59Z"/><path class="cls-30" d="m68.21,105.69c0,.33.27.59.59.59s.59-.27.59-.59-.27-.59-.59-.59-.59.27-.59.59Z"/><path class="cls-30" d="m68.3,93.16c0,.33.27.59.59.59s.59-.27.59-.59-.27-.59-.59-.59-.59.27-.59.59Z"/><path class="cls-27" d="m85.54,34.39c.37.06-.14-.75.12-.87.51-.24,1.23.14,1.86.79,1.26,1.3.95,4.02,0,5.32-.75,1.04-2.27,2.09-3.62,1.87-.34-.05-.55-.81-1.55-.44-.85.38-.85-2.24-.07-4.13.69-1.67,2.33-2.43,3.25-2.54Z"/><path class="cls-15" d="m85.66,33.52c1.92-.17,2.63,2.02,2.58,3.56-.08,2.4-1.34,4.03-4.33,4.43-.34.05-.73.07-1.08.32"/><path class="cls-27" d="m53.27,34.39c-.37.06.14-.75-.12-.87-.51-.24-1.23.14-1.86.79-1.26,1.3-.95,4.02,0,5.32.75,1.04,2.27,2.09,3.62,1.87.34-.05.55-.81,1.55-.44.85.38.85-2.24.07-4.13-.69-1.67-2.33-2.43-3.25-2.54Z"/><path class="cls-15" d="m53.15,33.52c-1.92-.17-2.63,2.02-2.58,3.56.08,2.4,1.34,4.03,4.33,4.43.34.05.73.07,1.08.32"/><path class="cls-27" d="m73.98,49.14c1.51-.4,2.37-.25,2.73-.44.68-.37,1.69-1.03,2.24-1.45.55-.43,1.35-1.29,1.78-1.92.43-.63,1.11-1.85,1.5-2.71.2-.43.18-1.02.45-1.83,1.05-1.35,1.87-4.86,2.43-8.25.05-.64.17-2.03.26-3.08.09-1.06-.22-3.73-.69-5.93s-1.88-5.15-3.13-6.55c-1.25-1.4-3.35-3.12-4.65-3.82-1.3-.7-3.57-1.41-5.04-1.57h-4.83c-1.47.16-3.73.87-5.04,1.57-1.3.7-3.4,2.42-4.65,3.82-1.25,1.4-2.66,4.35-3.13,6.55-.47,2.2-.78,4.87-.69,5.93.09,1.06.21,2.45.26,3.08.56,3.39,1.38,6.91,2.43,8.25.27.81.25,1.39.45,1.83.4.86,1.07,2.08,1.5,2.71.43.63,1.23,1.49,1.78,1.92.55.43,1.55,1.08,2.24,1.45.36.2,1.16.05,2.67.44,2.63,1.28,6.01,1.48,9.13,0Z"/><path class="cls-15" d="m64.65,49.99c-3.82-1.82-6.1-4.23-7.99-7.37-.2-.43-.52-.8-.87-1.05"/><path class="cls-15" d="m85.1,33.44c.05-.64.17-2.92.26-3.98.09-1.06-.22-3.73-.69-5.93-.47-2.2-1.88-5.15-3.13-6.55-1.25-1.4-3.35-3.12-4.65-3.82-1.3-.7-3.57-1.41-5.04-1.57h-4.83c-1.47.16-3.73.87-5.04,1.57-1.3.7-3.4,2.42-4.65,3.82-1.25,1.4-2.66,4.35-3.13,6.55s-.78,4.87-.69,5.93c.09,1.06.21,3.34.26,3.98"/><path class="cls-23" d="m83.45,31.98c.08.88.26,3.33.28,3.75l1.31-2.17c.71-.5,1.68-2.05,2.27-3.81,1.72-5.15.42-11.22-3.83-15.56-3.8-3.88-9.3-7.13-17.23-5.48-6.91,1.44-11.34,4.82-13.64,10.06-1.56,3.56-1.21,6.12-.65,9.05.55,2.94,1.16,4.27,2.13,5.79l1.01,2.12.09-3.75c.02-1.87.27-4.86.69-6.39,1.8-6.62,7.11-8.67,13.94-8.32,6.66.34,11.24,2.49,12.83,8.99.33,1.33.76,4.14.81,5.73Z"/><path class="cls-15" d="m74.23,49.99c3.82-1.82,6.1-4.23,7.99-7.37.2-.43.52-.8.87-1.05"/><path class="cls-19" d="m87.98,26.33c1.91-5.49-.42-8.5-3.59-12.8-2.17-2.95-4.49-4.74-7.32-5.57-1.64-.48-2.78.12-3.41.83-.25-1.41-1.08-2.38-3.41-2.58-4.9-.42-12.11,3.55-14.98,7.14-3.66,4.57-4.38,9.17-3.44,12.48,1.3-5.71,5.58-10.56,10.16-11.77,5.12-1.35,11.98.32,17.39.86,2.64.27,6.99,8.02,8.6,11.4Z"/><path class="cls-18" d="m67.43,16.3c-1.72.49-5.55,3.9-7.26,5.54-2.55,2.44-4.9,3.12-8,2.59.71-4.62,2.11-6.91,5.17-8.17,3.06-1.25,9.57-2.74,10.09.03Z"/><path class="cls-18" d="m79.07,22.67c2.08,1.91,4.97,2.5,7.12,2.42.03-1.98-2.9-5.3-4.66-6.2-1.09-.56-3.5-.64-5.12-1.09.23,1.82,1.59,3.89,2.65,4.87Z"/><path class="cls-18" d="m62.68,21.83c2.71-.52,5.46-2.14,7.57-5.66l-3.62-1.9c-.53,3.01-2.09,5.5-3.95,7.55Z"/><path class="cls-18" d="m49.27,22.54c.88,1.8,2.46,5.63,5.21,8.04l.75-4.41c-2.33-.83-5.01-2.61-5.96-3.63Z"/><path class="cls-18" d="m49.01,17.84c.06,3.05,2.83,7.43,6.21,7.76l1.67-11.91c-.31.42-2.15.29-2.5.66-.97,1.03-1.59,2.72-2.6,3.21-1.03.51-1.72.72-2.77.28Z"/><g id="VKV__21_30_"><path class="cls-21" d="m61.2,33.9c0,.14.36-.15,1.59-.36.8-.14,1.05.06,1.16-.12.09-.15-.31-.29-1.19-.18-1.01.13-1.57.52-1.57.66Z"/><path class="cls-25" d="m64.52,33.38c-.19-.05-.41-.16-.56-.2-.1-.02-.28-.06-.45-.06-.36-.02-.64-.02-1.03.06-.38.06-.73.12-1.05.23-.17.05-.35.12-.5.18-.1.05-.1.02-.21.09-.09.06-.18.11-.27.16-.22.11-.48.03-.6-.19-.08-.15-.06-.33.03-.46.06-.08.13-.17.19-.25.04-.07.21-.21.29-.27.2-.14.39-.26.59-.37.44-.22.89-.32,1.32-.39.42-.06.97-.09,1.42.04.24.06.46.12.73.28.21.15.34.25.51.4.18.16.2.44.04.62-.12.13-.29.18-.45.13h-.01Z"/></g><path class="cls-25" d="m68.46,37.45c.1-.14.31-.18.44-.3.29-.27.39-.59.35-.97-.05-.41-.15-.78-.33-1.15-.1-.21-.24-.25-.37-.21-.19.07-.17.39-.13.56.09.39.19.8-.37.96-.26.07-.66.13-.8.39-.14.26-.03.57.08.81.26.54.61,1.02,1.03,1.55.12.14.31.2.48.12.19-.09.26-.32.17-.52,0,0-.5-1-.51-1.01-.03-.05-.07-.12-.06-.18,0-.02,0-.03.02-.04Z"/><path class="cls-20" d="m76.58,33.79c0,.58-.23,1.04-.67,1.04s-.67-.47-.67-1.04.23-1.35.67-1.35.67.78.67,1.35Z"/><path class="cls-25" d="m73.64,31.36c.12-.21.25-.41.38-.62.14-.23.38-.46.59-.63.22-.18.46-.32.75-.44.3-.13.66-.16.94-.16.29,0,.57.06.85.14.29.09.59.24.8.4.22.17.43.35.63.59.05.07.1.13.15.23.04.08.05.12.08.18.05.11.09.22.13.34.07.22-.05.46-.27.54-.16.05-.33,0-.44-.11l-.02-.02c-.15-.16-.32-.45-.4-.47-.12-.11-.3-.22-.48-.31-.19-.1-.33-.17-.5-.21-.18-.05-.38-.06-.56-.07-.2,0-.33,0-.47.05-.16.05-.34.15-.51.24-.18.11-.31.19-.45.35-.18.17-.34.34-.53.5-.18.15-.45.13-.6-.05-.12-.14-.13-.33-.05-.48Z"/><path class="cls-25" d="m65.88,28.84c-1.03,0-2.05,0-3.08,0-1.04.01-2.1.09-3.09.45-.19.07-.4-.03-.47-.22-.06-.15,0-.32.12-.42l.03-.02c.92-.71,2.15-.87,3.28-.88,1.1,0,2.22.11,3.29.35.2.05.32.24.28.44-.04.17-.19.29-.36.29Z"/><path class="cls-25" d="m79.08,27.96c.15,0,.29-.08.36-.21.08-.16.11-.24.02-.39h0c-.8-1.02-1.7-1.51-2.83-1.55h-.21c-1.15,0-2.37.31-3.43.89-.14.08-.25.21-.27.35-.02.12.01.23.1.33.08.09.19.13.35.13h0c.32,0,.7-.14.98-.24.11-.04.2-.07.26-.09.48-.13,1.04-.26,1.62-.26.07,0,.14,0,.21,0,1.07.06,1.7.3,2.58.97.07.05.15.08.24.08Z"/><path class="cls-25" d="m67.12,41.65c.11.04.21.09.32.14l.16.07.09.02c.16.05.36.1.56.13.4.07.73.11,1.17.09.43,0,.77-.01,1.16-.1.19-.03.4-.08.56-.13l.09-.02.16-.07c.1-.05.21-.09.32-.13.25-.09.53.03.63.29.07.18.02.37-.1.5-.08.08-.16.17-.25.24l-.13.12c-.07.06-.14.11-.2.14-.25.14-.48.24-.72.33-.48.17-1.05.24-1.52.24-.47-.01-1.05-.06-1.52-.25-.24-.09-.47-.18-.72-.33-.06-.04-.13-.09-.2-.14l-.13-.12c-.09-.07-.17-.16-.25-.24-.19-.19-.18-.5,0-.69.14-.14.35-.17.52-.1Z"/><g class="cls-12"><path class="cls-27" d="m68.08,43.98c.25-.04.5-.04.74-.02.17,0,.38.01.59,0,.21,0,.42,0,.59,0,.24,0,.48-.01.74.04.27.05.44.31.39.58-.03.13-.11.25-.21.32-.22.14-.44.23-.67.32-.3.08-.57.11-.84.12-.27-.02-.54-.03-.84-.13-.23-.08-.45-.17-.67-.31-.23-.14-.3-.44-.16-.67.08-.13.2-.2.34-.23Z"/></g><path class="cls-24" d="m28.98,13.73c-.64,2.23-2.4,3.98-4.63,4.63-.26.08-.26.46,0,.53,2.23.64,3.98,2.4,4.63,4.63.08.26.46.26.53,0,.64-2.23,2.4-3.98,4.63-4.63.26-.08.26-.46,0-.53-2.23-.64-3.98-2.4-4.63-4.63-.08-.26-.46-.26-.53,0Z"/><path class="cls-24" d="m41.11,22.6c-.51.91-1.26,1.67-2.17,2.17-.16.09-.16.31,0,.4.91.51,1.67,1.26,2.17,2.17.09.16.31.16.4,0,.51-.91,1.26-1.67,2.17-2.17.16-.09.16-.31,0-.4-.91-.51-1.67-1.26-2.17-2.17-.09-.16-.31-.16-.4,0Z"/><line class="cls-2" x1="41.71" y1="15.22" x2="43.9" y2="15.22"/><line class="cls-2" x1="42.81" y1="16.31" x2="42.81" y2="14.12"/></g></g></g></g></svg>